<?xml version="1.0" encoding="UTF-8"?>
<svg id="Layer_1" xmlns="http://www.w3.org/2000/svg" version="1.1" viewBox="0 0 62 62">
  <!-- Generator: Adobe Illustrator 30.0.0, SVG Export Plug-In . SVG Version: 2.1.1 Build 123)  -->
  <defs>
    <style>
      .st0 {
        fill: #fff;
      }

      .st1 {
        fill: #6b1aff;
        stroke: #a7c5ff;
        stroke-opacity: .61;
        stroke-width: 8.67px;
      }
    </style>
  </defs>
  <circle class="st1" cx="31" cy="31" r="26"/>
  <path class="st0" d="M28.49,44.44c-.25,0-.45-.05-.6-.11-.5-.19-1.35-.8-1.35-2.74v-8.06h-2.93c-1.67,0-2.27-.79-2.49-1.25-.21-.48-.4-1.44.7-2.7l9.46-10.75c1.27-1.45,2.31-1.35,2.81-1.16s1.35.8,1.35,2.74v8.06h2.92c1.68,0,2.28.79,2.49,1.25.21.48.4,1.44-.7,2.7l-9.46,10.75c-.89,1.01-1.66,1.28-2.21,1.28ZM33.41,19.42c-.04.05-.3.18-.71.65l-9.46,10.75c-.35.4-.4.65-.4.7.02.01.25.14.77.14h3.86c.51,0,.94.43.94.94v9c0,.62.11.9.16.98.04-.05.3-.17.71-.65l9.46-10.75c.35-.4.4-.65.4-.7-.03-.01-.25-.14-.78-.14h-3.86c-.51,0-.94-.42-.94-.94v-9c.01-.62-.11-.89-.16-.98Z"/>
</svg>