<?xml version="1.0" encoding="UTF-8"?>
<svg id="Layer_1" xmlns="http://www.w3.org/2000/svg" version="1.1" viewBox="0 0 106 129">
  <!-- Generator: Adobe Illustrator 30.0.0, SVG Export Plug-In . SVG Version: 2.1.1 Build 123)  -->
  <defs>
    <style>
      .st0 {
        fill: #6b1aff;
      }
    </style>
  </defs>
  <path class="st0" d="M36.11,128.68c2.07-6.25-2.69-7.93-6.8-9.81-3.89-1.77-7.93-3.2-11.69-6.24,6.07-.23,12.14-.44,18.21-.68,15.85-.62,30.91-3.97,44.65-12.39,33.68-20.65,33.19-70.32-1.4-89.17C57.52-1.37,34.49-1.32,11.28,5.37c-1.62.47-3.02,1.74-4,4.36,2.38-.32,4.77-.54,7.14-.96,17.29-3.08,34.42-2.9,51.23,2.66,10.75,3.56,19.73,9.79,25.68,19.53,13.27,21.73,4.05,51.86-18.84,63.09-16.01,7.85-33.05,9.35-51.09,9.16,4.39-7.02,14.62-8.1,16.74-18.86-6.89,4.36-12.31,7.97-17.91,11.27-4.87,2.86-9.97,5.31-14.91,8.05-5.23,2.9-6.31,6.25-2.06,10.08,4.07,3.67,9.19,6.42,14.26,8.68,5.64,2.51,11.74,4,18.61,6.25Z"/>
</svg>