<svg width="1512" height="989" viewBox="0 0 1512 989" fill="none" xmlns="http://www.w3.org/2000/svg">
<mask id="mask0_2066_9210" style="mask-type:alpha" maskUnits="userSpaceOnUse" x="44" y="0" width="1440" height="1440">
<rect width="1440" height="1440" transform="translate(44)" fill="url(#paint0_radial_2066_9210)"/>
</mask>
<g mask="url(#mask0_2066_9210)">
<g clip-path="url(#clip0_2066_9210)">
<mask id="path-3-inside-1_2066_9210" fill="white">
<path d="M-4 0H92V96H-4V0Z"/>
</mask>
<path d="M92 96V97H93V96H92ZM91 0V96H93V0H91ZM92 95H-4V97H92V95Z" fill="#D0D5DD" mask="url(#path-3-inside-1_2066_9210)"/>
<mask id="path-5-inside-2_2066_9210" fill="white">
<path d="M92 0H188V96H92V0Z"/>
</mask>
<path d="M188 96V97H189V96H188ZM187 0V96H189V0H187ZM188 95H92V97H188V95Z" fill="#D0D5DD" mask="url(#path-5-inside-2_2066_9210)"/>
<mask id="path-7-inside-3_2066_9210" fill="white">
<path d="M188 0H284V96H188V0Z"/>
</mask>
<path d="M284 96V97H285V96H284ZM283 0V96H285V0H283ZM284 95H188V97H284V95Z" fill="#D0D5DD" mask="url(#path-7-inside-3_2066_9210)"/>
<mask id="path-9-inside-4_2066_9210" fill="white">
<path d="M284 0H380V96H284V0Z"/>
</mask>
<path d="M380 96V97H381V96H380ZM379 0V96H381V0H379ZM380 95H284V97H380V95Z" fill="#D0D5DD" mask="url(#path-9-inside-4_2066_9210)"/>
<mask id="path-11-inside-5_2066_9210" fill="white">
<path d="M380 0H476V96H380V0Z"/>
</mask>
<path d="M476 96V97H477V96H476ZM475 0V96H477V0H475ZM476 95H380V97H476V95Z" fill="#D0D5DD" mask="url(#path-11-inside-5_2066_9210)"/>
<mask id="path-13-inside-6_2066_9210" fill="white">
<path d="M476 0H572V96H476V0Z"/>
</mask>
<path d="M572 96V97H573V96H572ZM571 0V96H573V0H571ZM572 95H476V97H572V95Z" fill="#D0D5DD" mask="url(#path-13-inside-6_2066_9210)"/>
<mask id="path-15-inside-7_2066_9210" fill="white">
<path d="M572 0H668V96H572V0Z"/>
</mask>
<path d="M668 96V97H669V96H668ZM667 0V96H669V0H667ZM668 95H572V97H668V95Z" fill="#D0D5DD" mask="url(#path-15-inside-7_2066_9210)"/>
<mask id="path-17-inside-8_2066_9210" fill="white">
<path d="M668 0H764V96H668V0Z"/>
</mask>
<path d="M764 96V97H765V96H764ZM763 0V96H765V0H763ZM764 95H668V97H764V95Z" fill="#D0D5DD" mask="url(#path-17-inside-8_2066_9210)"/>
<mask id="path-19-inside-9_2066_9210" fill="white">
<path d="M764 0H860V96H764V0Z"/>
</mask>
<path d="M860 96V97H861V96H860ZM859 0V96H861V0H859ZM860 95H764V97H860V95Z" fill="#D0D5DD" mask="url(#path-19-inside-9_2066_9210)"/>
<mask id="path-21-inside-10_2066_9210" fill="white">
<path d="M860 0H956V96H860V0Z"/>
</mask>
<path d="M956 96V97H957V96H956ZM955 0V96H957V0H955ZM956 95H860V97H956V95Z" fill="#D0D5DD" mask="url(#path-21-inside-10_2066_9210)"/>
<mask id="path-23-inside-11_2066_9210" fill="white">
<path d="M956 0H1052V96H956V0Z"/>
</mask>
<path d="M1052 96V97H1053V96H1052ZM1051 0V96H1053V0H1051ZM1052 95H956V97H1052V95Z" fill="#D0D5DD" mask="url(#path-23-inside-11_2066_9210)"/>
<mask id="path-25-inside-12_2066_9210" fill="white">
<path d="M1052 0H1148V96H1052V0Z"/>
</mask>
<path d="M1148 96V97H1149V96H1148ZM1147 0V96H1149V0H1147ZM1148 95H1052V97H1148V95Z" fill="#D0D5DD" mask="url(#path-25-inside-12_2066_9210)"/>
<mask id="path-27-inside-13_2066_9210" fill="white">
<path d="M1148 0H1244V96H1148V0Z"/>
</mask>
<path d="M1244 96V97H1245V96H1244ZM1243 0V96H1245V0H1243ZM1244 95H1148V97H1244V95Z" fill="#D0D5DD" mask="url(#path-27-inside-13_2066_9210)"/>
<mask id="path-29-inside-14_2066_9210" fill="white">
<path d="M1244 0H1340V96H1244V0Z"/>
</mask>
<path d="M1340 96V97H1341V96H1340ZM1339 0V96H1341V0H1339ZM1340 95H1244V97H1340V95Z" fill="#D0D5DD" mask="url(#path-29-inside-14_2066_9210)"/>
<mask id="path-31-inside-15_2066_9210" fill="white">
<path d="M1340 0H1436V96H1340V0Z"/>
</mask>
<path d="M1436 96V97H1437V96H1436ZM1435 0V96H1437V0H1435ZM1436 95H1340V97H1436V95Z" fill="#D0D5DD" mask="url(#path-31-inside-15_2066_9210)"/>
<mask id="path-33-inside-16_2066_9210" fill="white">
<path d="M1436 0H1532V96H1436V0Z"/>
</mask>
<path d="M1532 96V97H1533V96H1532ZM1531 0V96H1533V0H1531ZM1532 95H1436V97H1532V95Z" fill="#D0D5DD" mask="url(#path-33-inside-16_2066_9210)"/>
<mask id="path-35-inside-17_2066_9210" fill="white">
<path d="M-4 96H92V192H-4V96Z"/>
</mask>
<path d="M92 192V193H93V192H92ZM91 96V192H93V96H91ZM92 191H-4V193H92V191Z" fill="#D0D5DD" mask="url(#path-35-inside-17_2066_9210)"/>
<mask id="path-37-inside-18_2066_9210" fill="white">
<path d="M92 96H188V192H92V96Z"/>
</mask>
<path d="M188 192V193H189V192H188ZM187 96V192H189V96H187ZM188 191H92V193H188V191Z" fill="#D0D5DD" mask="url(#path-37-inside-18_2066_9210)"/>
<mask id="path-39-inside-19_2066_9210" fill="white">
<path d="M188 96H284V192H188V96Z"/>
</mask>
<path d="M284 192V193H285V192H284ZM283 96V192H285V96H283ZM284 191H188V193H284V191Z" fill="#D0D5DD" mask="url(#path-39-inside-19_2066_9210)"/>
<mask id="path-41-inside-20_2066_9210" fill="white">
<path d="M284 96H380V192H284V96Z"/>
</mask>
<path d="M284 96H380V192H284V96Z" fill="#F2F4F7"/>
<path d="M380 192V193H381V192H380ZM379 96V192H381V96H379ZM380 191H284V193H380V191Z" fill="#D0D5DD" mask="url(#path-41-inside-20_2066_9210)"/>
<mask id="path-43-inside-21_2066_9210" fill="white">
<path d="M380 96H476V192H380V96Z"/>
</mask>
<path d="M476 192V193H477V192H476ZM475 96V192H477V96H475ZM476 191H380V193H476V191Z" fill="#D0D5DD" mask="url(#path-43-inside-21_2066_9210)"/>
<mask id="path-45-inside-22_2066_9210" fill="white">
<path d="M476 96H572V192H476V96Z"/>
</mask>
<path d="M572 192V193H573V192H572ZM571 96V192H573V96H571ZM572 191H476V193H572V191Z" fill="#D0D5DD" mask="url(#path-45-inside-22_2066_9210)"/>
<mask id="path-47-inside-23_2066_9210" fill="white">
<path d="M572 96H668V192H572V96Z"/>
</mask>
<path d="M668 192V193H669V192H668ZM667 96V192H669V96H667ZM668 191H572V193H668V191Z" fill="#D0D5DD" mask="url(#path-47-inside-23_2066_9210)"/>
<mask id="path-49-inside-24_2066_9210" fill="white">
<path d="M668 96H764V192H668V96Z"/>
</mask>
<path d="M764 192V193H765V192H764ZM763 96V192H765V96H763ZM764 191H668V193H764V191Z" fill="#D0D5DD" mask="url(#path-49-inside-24_2066_9210)"/>
<mask id="path-51-inside-25_2066_9210" fill="white">
<path d="M764 96H860V192H764V96Z"/>
</mask>
<path d="M860 192V193H861V192H860ZM859 96V192H861V96H859ZM860 191H764V193H860V191Z" fill="#D0D5DD" mask="url(#path-51-inside-25_2066_9210)"/>
<mask id="path-53-inside-26_2066_9210" fill="white">
<path d="M860 96H956V192H860V96Z"/>
</mask>
<path d="M956 192V193H957V192H956ZM955 96V192H957V96H955ZM956 191H860V193H956V191Z" fill="#D0D5DD" mask="url(#path-53-inside-26_2066_9210)"/>
<mask id="path-55-inside-27_2066_9210" fill="white">
<path d="M956 96H1052V192H956V96Z"/>
</mask>
<path d="M1052 192V193H1053V192H1052ZM1051 96V192H1053V96H1051ZM1052 191H956V193H1052V191Z" fill="#D0D5DD" mask="url(#path-55-inside-27_2066_9210)"/>
<mask id="path-57-inside-28_2066_9210" fill="white">
<path d="M1052 96H1148V192H1052V96Z"/>
</mask>
<path d="M1148 192V193H1149V192H1148ZM1147 96V192H1149V96H1147ZM1148 191H1052V193H1148V191Z" fill="#D0D5DD" mask="url(#path-57-inside-28_2066_9210)"/>
<mask id="path-59-inside-29_2066_9210" fill="white">
<path d="M1148 96H1244V192H1148V96Z"/>
</mask>
<path d="M1148 96H1244V192H1148V96Z" fill="#F2F4F7"/>
<path d="M1244 192V193H1245V192H1244ZM1243 96V192H1245V96H1243ZM1244 191H1148V193H1244V191Z" fill="#D0D5DD" mask="url(#path-59-inside-29_2066_9210)"/>
<mask id="path-61-inside-30_2066_9210" fill="white">
<path d="M1244 96H1340V192H1244V96Z"/>
</mask>
<path d="M1340 192V193H1341V192H1340ZM1339 96V192H1341V96H1339ZM1340 191H1244V193H1340V191Z" fill="#D0D5DD" mask="url(#path-61-inside-30_2066_9210)"/>
<mask id="path-63-inside-31_2066_9210" fill="white">
<path d="M1340 96H1436V192H1340V96Z"/>
</mask>
<path d="M1436 192V193H1437V192H1436ZM1435 96V192H1437V96H1435ZM1436 191H1340V193H1436V191Z" fill="#D0D5DD" mask="url(#path-63-inside-31_2066_9210)"/>
<mask id="path-65-inside-32_2066_9210" fill="white">
<path d="M1436 96H1532V192H1436V96Z"/>
</mask>
<path d="M1532 192V193H1533V192H1532ZM1531 96V192H1533V96H1531ZM1532 191H1436V193H1532V191Z" fill="#D0D5DD" mask="url(#path-65-inside-32_2066_9210)"/>
<mask id="path-67-inside-33_2066_9210" fill="white">
<path d="M-4 192H92V288H-4V192Z"/>
</mask>
<path d="M92 288V289H93V288H92ZM91 192V288H93V192H91ZM92 287H-4V289H92V287Z" fill="#D0D5DD" mask="url(#path-67-inside-33_2066_9210)"/>
<mask id="path-69-inside-34_2066_9210" fill="white">
<path d="M92 192H188V288H92V192Z"/>
</mask>
<path d="M188 288V289H189V288H188ZM187 192V288H189V192H187ZM188 287H92V289H188V287Z" fill="#D0D5DD" mask="url(#path-69-inside-34_2066_9210)"/>
<mask id="path-71-inside-35_2066_9210" fill="white">
<path d="M188 192H284V288H188V192Z"/>
</mask>
<path d="M284 288V289H285V288H284ZM283 192V288H285V192H283ZM284 287H188V289H284V287Z" fill="#D0D5DD" mask="url(#path-71-inside-35_2066_9210)"/>
<mask id="path-73-inside-36_2066_9210" fill="white">
<path d="M284 192H380V288H284V192Z"/>
</mask>
<path d="M380 288V289H381V288H380ZM379 192V288H381V192H379ZM380 287H284V289H380V287Z" fill="#D0D5DD" mask="url(#path-73-inside-36_2066_9210)"/>
<mask id="path-75-inside-37_2066_9210" fill="white">
<path d="M380 192H476V288H380V192Z"/>
</mask>
<path d="M476 288V289H477V288H476ZM475 192V288H477V192H475ZM476 287H380V289H476V287Z" fill="#D0D5DD" mask="url(#path-75-inside-37_2066_9210)"/>
<mask id="path-77-inside-38_2066_9210" fill="white">
<path d="M476 192H572V288H476V192Z"/>
</mask>
<path d="M476 192H572V288H476V192Z" fill="#F2F4F7"/>
<path d="M572 288V289H573V288H572ZM571 192V288H573V192H571ZM572 287H476V289H572V287Z" fill="#D0D5DD" mask="url(#path-77-inside-38_2066_9210)"/>
<mask id="path-79-inside-39_2066_9210" fill="white">
<path d="M572 192H668V288H572V192Z"/>
</mask>
<path d="M668 288V289H669V288H668ZM667 192V288H669V192H667ZM668 287H572V289H668V287Z" fill="#D0D5DD" mask="url(#path-79-inside-39_2066_9210)"/>
<mask id="path-81-inside-40_2066_9210" fill="white">
<path d="M668 192H764V288H668V192Z"/>
</mask>
<path d="M764 288V289H765V288H764ZM763 192V288H765V192H763ZM764 287H668V289H764V287Z" fill="#D0D5DD" mask="url(#path-81-inside-40_2066_9210)"/>
<mask id="path-83-inside-41_2066_9210" fill="white">
<path d="M764 192H860V288H764V192Z"/>
</mask>
<path d="M860 288V289H861V288H860ZM859 192V288H861V192H859ZM860 287H764V289H860V287Z" fill="#D0D5DD" mask="url(#path-83-inside-41_2066_9210)"/>
<mask id="path-85-inside-42_2066_9210" fill="white">
<path d="M860 192H956V288H860V192Z"/>
</mask>
<path d="M860 192H956V288H860V192Z" fill="#F2F4F7"/>
<path d="M956 288V289H957V288H956ZM955 192V288H957V192H955ZM956 287H860V289H956V287Z" fill="#D0D5DD" mask="url(#path-85-inside-42_2066_9210)"/>
<mask id="path-87-inside-43_2066_9210" fill="white">
<path d="M956 192H1052V288H956V192Z"/>
</mask>
<path d="M1052 288V289H1053V288H1052ZM1051 192V288H1053V192H1051ZM1052 287H956V289H1052V287Z" fill="#D0D5DD" mask="url(#path-87-inside-43_2066_9210)"/>
<mask id="path-89-inside-44_2066_9210" fill="white">
<path d="M1052 192H1148V288H1052V192Z"/>
</mask>
<path d="M1148 288V289H1149V288H1148ZM1147 192V288H1149V192H1147ZM1148 287H1052V289H1148V287Z" fill="#D0D5DD" mask="url(#path-89-inside-44_2066_9210)"/>
<mask id="path-91-inside-45_2066_9210" fill="white">
<path d="M1148 192H1244V288H1148V192Z"/>
</mask>
<path d="M1244 288V289H1245V288H1244ZM1243 192V288H1245V192H1243ZM1244 287H1148V289H1244V287Z" fill="#D0D5DD" mask="url(#path-91-inside-45_2066_9210)"/>
<mask id="path-93-inside-46_2066_9210" fill="white">
<path d="M1244 192H1340V288H1244V192Z"/>
</mask>
<path d="M1340 288V289H1341V288H1340ZM1339 192V288H1341V192H1339ZM1340 287H1244V289H1340V287Z" fill="#D0D5DD" mask="url(#path-93-inside-46_2066_9210)"/>
<mask id="path-95-inside-47_2066_9210" fill="white">
<path d="M1340 192H1436V288H1340V192Z"/>
</mask>
<path d="M1436 288V289H1437V288H1436ZM1435 192V288H1437V192H1435ZM1436 287H1340V289H1436V287Z" fill="#D0D5DD" mask="url(#path-95-inside-47_2066_9210)"/>
<mask id="path-97-inside-48_2066_9210" fill="white">
<path d="M1436 192H1532V288H1436V192Z"/>
</mask>
<path d="M1532 288V289H1533V288H1532ZM1531 192V288H1533V192H1531ZM1532 287H1436V289H1532V287Z" fill="#D0D5DD" mask="url(#path-97-inside-48_2066_9210)"/>
<mask id="path-99-inside-49_2066_9210" fill="white">
<path d="M-4 288H92V384H-4V288Z"/>
</mask>
<path d="M-4 288H92V384H-4V288Z" fill="#F2F4F7"/>
<path d="M92 384V385H93V384H92ZM91 288V384H93V288H91ZM92 383H-4V385H92V383Z" fill="#D0D5DD" mask="url(#path-99-inside-49_2066_9210)"/>
<mask id="path-101-inside-50_2066_9210" fill="white">
<path d="M92 288H188V384H92V288Z"/>
</mask>
<path d="M188 384V385H189V384H188ZM187 288V384H189V288H187ZM188 383H92V385H188V383Z" fill="#D0D5DD" mask="url(#path-101-inside-50_2066_9210)"/>
<mask id="path-103-inside-51_2066_9210" fill="white">
<path d="M188 288H284V384H188V288Z"/>
</mask>
<path d="M284 384V385H285V384H284ZM283 288V384H285V288H283ZM284 383H188V385H284V383Z" fill="#D0D5DD" mask="url(#path-103-inside-51_2066_9210)"/>
<mask id="path-105-inside-52_2066_9210" fill="white">
<path d="M284 288H380V384H284V288Z"/>
</mask>
<path d="M380 384V385H381V384H380ZM379 288V384H381V288H379ZM380 383H284V385H380V383Z" fill="#D0D5DD" mask="url(#path-105-inside-52_2066_9210)"/>
<mask id="path-107-inside-53_2066_9210" fill="white">
<path d="M380 288H476V384H380V288Z"/>
</mask>
<path d="M476 384V385H477V384H476ZM475 288V384H477V288H475ZM476 383H380V385H476V383Z" fill="#D0D5DD" mask="url(#path-107-inside-53_2066_9210)"/>
<mask id="path-109-inside-54_2066_9210" fill="white">
<path d="M476 288H572V384H476V288Z"/>
</mask>
<path d="M572 384V385H573V384H572ZM571 288V384H573V288H571ZM572 383H476V385H572V383Z" fill="#D0D5DD" mask="url(#path-109-inside-54_2066_9210)"/>
<mask id="path-111-inside-55_2066_9210" fill="white">
<path d="M572 288H668V384H572V288Z"/>
</mask>
<path d="M668 384V385H669V384H668ZM667 288V384H669V288H667ZM668 383H572V385H668V383Z" fill="#D0D5DD" mask="url(#path-111-inside-55_2066_9210)"/>
<mask id="path-113-inside-56_2066_9210" fill="white">
<path d="M668 288H764V384H668V288Z"/>
</mask>
<path d="M764 384V385H765V384H764ZM763 288V384H765V288H763ZM764 383H668V385H764V383Z" fill="#D0D5DD" mask="url(#path-113-inside-56_2066_9210)"/>
<mask id="path-115-inside-57_2066_9210" fill="white">
<path d="M764 288H860V384H764V288Z"/>
</mask>
<path d="M860 384V385H861V384H860ZM859 288V384H861V288H859ZM860 383H764V385H860V383Z" fill="#D0D5DD" mask="url(#path-115-inside-57_2066_9210)"/>
<mask id="path-117-inside-58_2066_9210" fill="white">
<path d="M860 288H956V384H860V288Z"/>
</mask>
<path d="M956 384V385H957V384H956ZM955 288V384H957V288H955ZM956 383H860V385H956V383Z" fill="#D0D5DD" mask="url(#path-117-inside-58_2066_9210)"/>
<mask id="path-119-inside-59_2066_9210" fill="white">
<path d="M956 288H1052V384H956V288Z"/>
</mask>
<path d="M1052 384V385H1053V384H1052ZM1051 288V384H1053V288H1051ZM1052 383H956V385H1052V383Z" fill="#D0D5DD" mask="url(#path-119-inside-59_2066_9210)"/>
<mask id="path-121-inside-60_2066_9210" fill="white">
<path d="M1052 288H1148V384H1052V288Z"/>
</mask>
<path d="M1148 384V385H1149V384H1148ZM1147 288V384H1149V288H1147ZM1148 383H1052V385H1148V383Z" fill="#D0D5DD" mask="url(#path-121-inside-60_2066_9210)"/>
<mask id="path-123-inside-61_2066_9210" fill="white">
<path d="M1148 288H1244V384H1148V288Z"/>
</mask>
<path d="M1148 288H1244V384H1148V288Z" fill="#F2F4F7"/>
<path d="M1244 384V385H1245V384H1244ZM1243 288V384H1245V288H1243ZM1244 383H1148V385H1244V383Z" fill="#D0D5DD" mask="url(#path-123-inside-61_2066_9210)"/>
<mask id="path-125-inside-62_2066_9210" fill="white">
<path d="M1244 288H1340V384H1244V288Z"/>
</mask>
<path d="M1340 384V385H1341V384H1340ZM1339 288V384H1341V288H1339ZM1340 383H1244V385H1340V383Z" fill="#D0D5DD" mask="url(#path-125-inside-62_2066_9210)"/>
<mask id="path-127-inside-63_2066_9210" fill="white">
<path d="M1340 288H1436V384H1340V288Z"/>
</mask>
<path d="M1436 384V385H1437V384H1436ZM1435 288V384H1437V288H1435ZM1436 383H1340V385H1436V383Z" fill="#D0D5DD" mask="url(#path-127-inside-63_2066_9210)"/>
<mask id="path-129-inside-64_2066_9210" fill="white">
<path d="M1436 288H1532V384H1436V288Z"/>
</mask>
<path d="M1532 384V385H1533V384H1532ZM1531 288V384H1533V288H1531ZM1532 383H1436V385H1532V383Z" fill="#D0D5DD" mask="url(#path-129-inside-64_2066_9210)"/>
<mask id="path-131-inside-65_2066_9210" fill="white">
<path d="M-4 384H92V480H-4V384Z"/>
</mask>
<path d="M92 480V481H93V480H92ZM91 384V480H93V384H91ZM92 479H-4V481H92V479Z" fill="#D0D5DD" mask="url(#path-131-inside-65_2066_9210)"/>
<mask id="path-133-inside-66_2066_9210" fill="white">
<path d="M92 384H188V480H92V384Z"/>
</mask>
<path d="M188 480V481H189V480H188ZM187 384V480H189V384H187ZM188 479H92V481H188V479Z" fill="#D0D5DD" mask="url(#path-133-inside-66_2066_9210)"/>
<mask id="path-135-inside-67_2066_9210" fill="white">
<path d="M188 384H284V480H188V384Z"/>
</mask>
<path d="M284 480V481H285V480H284ZM283 384V480H285V384H283ZM284 479H188V481H284V479Z" fill="#D0D5DD" mask="url(#path-135-inside-67_2066_9210)"/>
<mask id="path-137-inside-68_2066_9210" fill="white">
<path d="M284 384H380V480H284V384Z"/>
</mask>
<path d="M380 480V481H381V480H380ZM379 384V480H381V384H379ZM380 479H284V481H380V479Z" fill="#D0D5DD" mask="url(#path-137-inside-68_2066_9210)"/>
<mask id="path-139-inside-69_2066_9210" fill="white">
<path d="M380 384H476V480H380V384Z"/>
</mask>
<path d="M476 480V481H477V480H476ZM475 384V480H477V384H475ZM476 479H380V481H476V479Z" fill="#D0D5DD" mask="url(#path-139-inside-69_2066_9210)"/>
<mask id="path-141-inside-70_2066_9210" fill="white">
<path d="M476 384H572V480H476V384Z"/>
</mask>
<path d="M572 480V481H573V480H572ZM571 384V480H573V384H571ZM572 479H476V481H572V479Z" fill="#D0D5DD" mask="url(#path-141-inside-70_2066_9210)"/>
<mask id="path-143-inside-71_2066_9210" fill="white">
<path d="M572 384H668V480H572V384Z"/>
</mask>
<path d="M572 384H668V480H572V384Z" fill="#F2F4F7"/>
<path d="M668 480V481H669V480H668ZM667 384V480H669V384H667ZM668 479H572V481H668V479Z" fill="#D0D5DD" mask="url(#path-143-inside-71_2066_9210)"/>
<mask id="path-145-inside-72_2066_9210" fill="white">
<path d="M668 384H764V480H668V384Z"/>
</mask>
<path d="M764 480V481H765V480H764ZM763 384V480H765V384H763ZM764 479H668V481H764V479Z" fill="#D0D5DD" mask="url(#path-145-inside-72_2066_9210)"/>
<mask id="path-147-inside-73_2066_9210" fill="white">
<path d="M764 384H860V480H764V384Z"/>
</mask>
<path d="M860 480V481H861V480H860ZM859 384V480H861V384H859ZM860 479H764V481H860V479Z" fill="#D0D5DD" mask="url(#path-147-inside-73_2066_9210)"/>
<mask id="path-149-inside-74_2066_9210" fill="white">
<path d="M860 384H956V480H860V384Z"/>
</mask>
<path d="M956 480V481H957V480H956ZM955 384V480H957V384H955ZM956 479H860V481H956V479Z" fill="#D0D5DD" mask="url(#path-149-inside-74_2066_9210)"/>
<mask id="path-151-inside-75_2066_9210" fill="white">
<path d="M956 384H1052V480H956V384Z"/>
</mask>
<path d="M1052 480V481H1053V480H1052ZM1051 384V480H1053V384H1051ZM1052 479H956V481H1052V479Z" fill="#D0D5DD" mask="url(#path-151-inside-75_2066_9210)"/>
<mask id="path-153-inside-76_2066_9210" fill="white">
<path d="M1052 384H1148V480H1052V384Z"/>
</mask>
<path d="M1148 480V481H1149V480H1148ZM1147 384V480H1149V384H1147ZM1148 479H1052V481H1148V479Z" fill="#D0D5DD" mask="url(#path-153-inside-76_2066_9210)"/>
<mask id="path-155-inside-77_2066_9210" fill="white">
<path d="M1148 384H1244V480H1148V384Z"/>
</mask>
<path d="M1244 480V481H1245V480H1244ZM1243 384V480H1245V384H1243ZM1244 479H1148V481H1244V479Z" fill="#D0D5DD" mask="url(#path-155-inside-77_2066_9210)"/>
<mask id="path-157-inside-78_2066_9210" fill="white">
<path d="M1244 384H1340V480H1244V384Z"/>
</mask>
<path d="M1340 480V481H1341V480H1340ZM1339 384V480H1341V384H1339ZM1340 479H1244V481H1340V479Z" fill="#D0D5DD" mask="url(#path-157-inside-78_2066_9210)"/>
<mask id="path-159-inside-79_2066_9210" fill="white">
<path d="M1340 384H1436V480H1340V384Z"/>
</mask>
<path d="M1436 480V481H1437V480H1436ZM1435 384V480H1437V384H1435ZM1436 479H1340V481H1436V479Z" fill="#D0D5DD" mask="url(#path-159-inside-79_2066_9210)"/>
<mask id="path-161-inside-80_2066_9210" fill="white">
<path d="M1436 384H1532V480H1436V384Z"/>
</mask>
<path d="M1532 480V481H1533V480H1532ZM1531 384V480H1533V384H1531ZM1532 479H1436V481H1532V479Z" fill="#D0D5DD" mask="url(#path-161-inside-80_2066_9210)"/>
<mask id="path-163-inside-81_2066_9210" fill="white">
<path d="M-4 480H92V576H-4V480Z"/>
</mask>
<path d="M92 576V577H93V576H92ZM91 480V576H93V480H91ZM92 575H-4V577H92V575Z" fill="#D0D5DD" mask="url(#path-163-inside-81_2066_9210)"/>
<mask id="path-165-inside-82_2066_9210" fill="white">
<path d="M92 480H188V576H92V480Z"/>
</mask>
<path d="M188 576V577H189V576H188ZM187 480V576H189V480H187ZM188 575H92V577H188V575Z" fill="#D0D5DD" mask="url(#path-165-inside-82_2066_9210)"/>
<mask id="path-167-inside-83_2066_9210" fill="white">
<path d="M188 480H284V576H188V480Z"/>
</mask>
<path d="M284 576V577H285V576H284ZM283 480V576H285V480H283ZM284 575H188V577H284V575Z" fill="#D0D5DD" mask="url(#path-167-inside-83_2066_9210)"/>
<mask id="path-169-inside-84_2066_9210" fill="white">
<path d="M284 480H380V576H284V480Z"/>
</mask>
<path d="M284 480H380V576H284V480Z" fill="#F2F4F7"/>
<path d="M380 576V577H381V576H380ZM379 480V576H381V480H379ZM380 575H284V577H380V575Z" fill="#D0D5DD" mask="url(#path-169-inside-84_2066_9210)"/>
<mask id="path-171-inside-85_2066_9210" fill="white">
<path d="M380 480H476V576H380V480Z"/>
</mask>
<path d="M476 576V577H477V576H476ZM475 480V576H477V480H475ZM476 575H380V577H476V575Z" fill="#D0D5DD" mask="url(#path-171-inside-85_2066_9210)"/>
<mask id="path-173-inside-86_2066_9210" fill="white">
<path d="M476 480H572V576H476V480Z"/>
</mask>
<path d="M572 576V577H573V576H572ZM571 480V576H573V480H571ZM572 575H476V577H572V575Z" fill="#D0D5DD" mask="url(#path-173-inside-86_2066_9210)"/>
<mask id="path-175-inside-87_2066_9210" fill="white">
<path d="M572 480H668V576H572V480Z"/>
</mask>
<path d="M668 576V577H669V576H668ZM667 480V576H669V480H667ZM668 575H572V577H668V575Z" fill="#D0D5DD" mask="url(#path-175-inside-87_2066_9210)"/>
<mask id="path-177-inside-88_2066_9210" fill="white">
<path d="M668 480H764V576H668V480Z"/>
</mask>
<path d="M764 576V577H765V576H764ZM763 480V576H765V480H763ZM764 575H668V577H764V575Z" fill="#D0D5DD" mask="url(#path-177-inside-88_2066_9210)"/>
<mask id="path-179-inside-89_2066_9210" fill="white">
<path d="M764 480H860V576H764V480Z"/>
</mask>
<path d="M860 576V577H861V576H860ZM859 480V576H861V480H859ZM860 575H764V577H860V575Z" fill="#D0D5DD" mask="url(#path-179-inside-89_2066_9210)"/>
<mask id="path-181-inside-90_2066_9210" fill="white">
<path d="M860 480H956V576H860V480Z"/>
</mask>
<path d="M860 480H956V576H860V480Z" fill="#F2F4F7"/>
<path d="M956 576V577H957V576H956ZM955 480V576H957V480H955ZM956 575H860V577H956V575Z" fill="#D0D5DD" mask="url(#path-181-inside-90_2066_9210)"/>
<mask id="path-183-inside-91_2066_9210" fill="white">
<path d="M956 480H1052V576H956V480Z"/>
</mask>
<path d="M1052 576V577H1053V576H1052ZM1051 480V576H1053V480H1051ZM1052 575H956V577H1052V575Z" fill="#D0D5DD" mask="url(#path-183-inside-91_2066_9210)"/>
<mask id="path-185-inside-92_2066_9210" fill="white">
<path d="M1052 480H1148V576H1052V480Z"/>
</mask>
<path d="M1148 576V577H1149V576H1148ZM1147 480V576H1149V480H1147ZM1148 575H1052V577H1148V575Z" fill="#D0D5DD" mask="url(#path-185-inside-92_2066_9210)"/>
<mask id="path-187-inside-93_2066_9210" fill="white">
<path d="M1148 480H1244V576H1148V480Z"/>
</mask>
<path d="M1244 576V577H1245V576H1244ZM1243 480V576H1245V480H1243ZM1244 575H1148V577H1244V575Z" fill="#D0D5DD" mask="url(#path-187-inside-93_2066_9210)"/>
<mask id="path-189-inside-94_2066_9210" fill="white">
<path d="M1244 480H1340V576H1244V480Z"/>
</mask>
<path d="M1340 576V577H1341V576H1340ZM1339 480V576H1341V480H1339ZM1340 575H1244V577H1340V575Z" fill="#D0D5DD" mask="url(#path-189-inside-94_2066_9210)"/>
<mask id="path-191-inside-95_2066_9210" fill="white">
<path d="M1340 480H1436V576H1340V480Z"/>
</mask>
<path d="M1436 576V577H1437V576H1436ZM1435 480V576H1437V480H1435ZM1436 575H1340V577H1436V575Z" fill="#D0D5DD" mask="url(#path-191-inside-95_2066_9210)"/>
<mask id="path-193-inside-96_2066_9210" fill="white">
<path d="M1436 480H1532V576H1436V480Z"/>
</mask>
<path d="M1532 576V577H1533V576H1532ZM1531 480V576H1533V480H1531ZM1532 575H1436V577H1532V575Z" fill="#D0D5DD" mask="url(#path-193-inside-96_2066_9210)"/>
<mask id="path-195-inside-97_2066_9210" fill="white">
<path d="M-4 576H92V672H-4V576Z"/>
</mask>
<path d="M92 672V673H93V672H92ZM91 576V672H93V576H91ZM92 671H-4V673H92V671Z" fill="#D0D5DD" mask="url(#path-195-inside-97_2066_9210)"/>
<mask id="path-197-inside-98_2066_9210" fill="white">
<path d="M92 576H188V672H92V576Z"/>
</mask>
<path d="M92 576H188V672H92V576Z" fill="#F2F4F7"/>
<path d="M188 672V673H189V672H188ZM187 576V672H189V576H187ZM188 671H92V673H188V671Z" fill="#D0D5DD" mask="url(#path-197-inside-98_2066_9210)"/>
<mask id="path-199-inside-99_2066_9210" fill="white">
<path d="M188 576H284V672H188V576Z"/>
</mask>
<path d="M284 672V673H285V672H284ZM283 576V672H285V576H283ZM284 671H188V673H284V671Z" fill="#D0D5DD" mask="url(#path-199-inside-99_2066_9210)"/>
<mask id="path-201-inside-100_2066_9210" fill="white">
<path d="M284 576H380V672H284V576Z"/>
</mask>
<path d="M380 672V673H381V672H380ZM379 576V672H381V576H379ZM380 671H284V673H380V671Z" fill="#D0D5DD" mask="url(#path-201-inside-100_2066_9210)"/>
<mask id="path-203-inside-101_2066_9210" fill="white">
<path d="M380 576H476V672H380V576Z"/>
</mask>
<path d="M476 672V673H477V672H476ZM475 576V672H477V576H475ZM476 671H380V673H476V671Z" fill="#D0D5DD" mask="url(#path-203-inside-101_2066_9210)"/>
<mask id="path-205-inside-102_2066_9210" fill="white">
<path d="M476 576H572V672H476V576Z"/>
</mask>
<path d="M572 672V673H573V672H572ZM571 576V672H573V576H571ZM572 671H476V673H572V671Z" fill="#D0D5DD" mask="url(#path-205-inside-102_2066_9210)"/>
<mask id="path-207-inside-103_2066_9210" fill="white">
<path d="M572 576H668V672H572V576Z"/>
</mask>
<path d="M668 672V673H669V672H668ZM667 576V672H669V576H667ZM668 671H572V673H668V671Z" fill="#D0D5DD" mask="url(#path-207-inside-103_2066_9210)"/>
<mask id="path-209-inside-104_2066_9210" fill="white">
<path d="M668 576H764V672H668V576Z"/>
</mask>
<path d="M764 672V673H765V672H764ZM763 576V672H765V576H763ZM764 671H668V673H764V671Z" fill="#D0D5DD" mask="url(#path-209-inside-104_2066_9210)"/>
<mask id="path-211-inside-105_2066_9210" fill="white">
<path d="M764 576H860V672H764V576Z"/>
</mask>
<path d="M860 672V673H861V672H860ZM859 576V672H861V576H859ZM860 671H764V673H860V671Z" fill="#D0D5DD" mask="url(#path-211-inside-105_2066_9210)"/>
<mask id="path-213-inside-106_2066_9210" fill="white">
<path d="M860 576H956V672H860V576Z"/>
</mask>
<path d="M956 672V673H957V672H956ZM955 576V672H957V576H955ZM956 671H860V673H956V671Z" fill="#D0D5DD" mask="url(#path-213-inside-106_2066_9210)"/>
<mask id="path-215-inside-107_2066_9210" fill="white">
<path d="M956 576H1052V672H956V576Z"/>
</mask>
<path d="M1052 672V673H1053V672H1052ZM1051 576V672H1053V576H1051ZM1052 671H956V673H1052V671Z" fill="#D0D5DD" mask="url(#path-215-inside-107_2066_9210)"/>
<mask id="path-217-inside-108_2066_9210" fill="white">
<path d="M1052 576H1148V672H1052V576Z"/>
</mask>
<path d="M1148 672V673H1149V672H1148ZM1147 576V672H1149V576H1147ZM1148 671H1052V673H1148V671Z" fill="#D0D5DD" mask="url(#path-217-inside-108_2066_9210)"/>
<mask id="path-219-inside-109_2066_9210" fill="white">
<path d="M1148 576H1244V672H1148V576Z"/>
</mask>
<path d="M1244 672V673H1245V672H1244ZM1243 576V672H1245V576H1243ZM1244 671H1148V673H1244V671Z" fill="#D0D5DD" mask="url(#path-219-inside-109_2066_9210)"/>
<mask id="path-221-inside-110_2066_9210" fill="white">
<path d="M1244 576H1340V672H1244V576Z"/>
</mask>
<path d="M1340 672V673H1341V672H1340ZM1339 576V672H1341V576H1339ZM1340 671H1244V673H1340V671Z" fill="#D0D5DD" mask="url(#path-221-inside-110_2066_9210)"/>
<mask id="path-223-inside-111_2066_9210" fill="white">
<path d="M1340 576H1436V672H1340V576Z"/>
</mask>
<path d="M1340 576H1436V672H1340V576Z" fill="#F2F4F7"/>
<path d="M1436 672V673H1437V672H1436ZM1435 576V672H1437V576H1435ZM1436 671H1340V673H1436V671Z" fill="#D0D5DD" mask="url(#path-223-inside-111_2066_9210)"/>
<mask id="path-225-inside-112_2066_9210" fill="white">
<path d="M1436 576H1532V672H1436V576Z"/>
</mask>
<path d="M1532 672V673H1533V672H1532ZM1531 576V672H1533V576H1531ZM1532 671H1436V673H1532V671Z" fill="#D0D5DD" mask="url(#path-225-inside-112_2066_9210)"/>
<mask id="path-227-inside-113_2066_9210" fill="white">
<path d="M-4 672H92V768H-4V672Z"/>
</mask>
<path d="M92 768V769H93V768H92ZM91 672V768H93V672H91ZM92 767H-4V769H92V767Z" fill="#D0D5DD" mask="url(#path-227-inside-113_2066_9210)"/>
<mask id="path-229-inside-114_2066_9210" fill="white">
<path d="M92 672H188V768H92V672Z"/>
</mask>
<path d="M188 768V769H189V768H188ZM187 672V768H189V672H187ZM188 767H92V769H188V767Z" fill="#D0D5DD" mask="url(#path-229-inside-114_2066_9210)"/>
<mask id="path-231-inside-115_2066_9210" fill="white">
<path d="M188 672H284V768H188V672Z"/>
</mask>
<path d="M284 768V769H285V768H284ZM283 672V768H285V672H283ZM284 767H188V769H284V767Z" fill="#D0D5DD" mask="url(#path-231-inside-115_2066_9210)"/>
<mask id="path-233-inside-116_2066_9210" fill="white">
<path d="M284 672H380V768H284V672Z"/>
</mask>
<path d="M380 768V769H381V768H380ZM379 672V768H381V672H379ZM380 767H284V769H380V767Z" fill="#D0D5DD" mask="url(#path-233-inside-116_2066_9210)"/>
<mask id="path-235-inside-117_2066_9210" fill="white">
<path d="M380 672H476V768H380V672Z"/>
</mask>
<path d="M476 768V769H477V768H476ZM475 672V768H477V672H475ZM476 767H380V769H476V767Z" fill="#D0D5DD" mask="url(#path-235-inside-117_2066_9210)"/>
<mask id="path-237-inside-118_2066_9210" fill="white">
<path d="M476 672H572V768H476V672Z"/>
</mask>
<path d="M572 768V769H573V768H572ZM571 672V768H573V672H571ZM572 767H476V769H572V767Z" fill="#D0D5DD" mask="url(#path-237-inside-118_2066_9210)"/>
<mask id="path-239-inside-119_2066_9210" fill="white">
<path d="M572 672H668V768H572V672Z"/>
</mask>
<path d="M572 672H668V768H572V672Z" fill="#F2F4F7"/>
<path d="M668 768V769H669V768H668ZM667 672V768H669V672H667ZM668 767H572V769H668V767Z" fill="#D0D5DD" mask="url(#path-239-inside-119_2066_9210)"/>
<mask id="path-241-inside-120_2066_9210" fill="white">
<path d="M668 672H764V768H668V672Z"/>
</mask>
<path d="M764 768V769H765V768H764ZM763 672V768H765V672H763ZM764 767H668V769H764V767Z" fill="#D0D5DD" mask="url(#path-241-inside-120_2066_9210)"/>
<mask id="path-243-inside-121_2066_9210" fill="white">
<path d="M764 672H860V768H764V672Z"/>
</mask>
<path d="M860 768V769H861V768H860ZM859 672V768H861V672H859ZM860 767H764V769H860V767Z" fill="#D0D5DD" mask="url(#path-243-inside-121_2066_9210)"/>
<mask id="path-245-inside-122_2066_9210" fill="white">
<path d="M860 672H956V768H860V672Z"/>
</mask>
<path d="M956 768V769H957V768H956ZM955 672V768H957V672H955ZM956 767H860V769H956V767Z" fill="#D0D5DD" mask="url(#path-245-inside-122_2066_9210)"/>
<mask id="path-247-inside-123_2066_9210" fill="white">
<path d="M956 672H1052V768H956V672Z"/>
</mask>
<path d="M1052 768V769H1053V768H1052ZM1051 672V768H1053V672H1051ZM1052 767H956V769H1052V767Z" fill="#D0D5DD" mask="url(#path-247-inside-123_2066_9210)"/>
<mask id="path-249-inside-124_2066_9210" fill="white">
<path d="M1052 672H1148V768H1052V672Z"/>
</mask>
<path d="M1148 768V769H1149V768H1148ZM1147 672V768H1149V672H1147ZM1148 767H1052V769H1148V767Z" fill="#D0D5DD" mask="url(#path-249-inside-124_2066_9210)"/>
<mask id="path-251-inside-125_2066_9210" fill="white">
<path d="M1148 672H1244V768H1148V672Z"/>
</mask>
<path d="M1148 672H1244V768H1148V672Z" fill="#F2F4F7"/>
<path d="M1244 768V769H1245V768H1244ZM1243 672V768H1245V672H1243ZM1244 767H1148V769H1244V767Z" fill="#D0D5DD" mask="url(#path-251-inside-125_2066_9210)"/>
<mask id="path-253-inside-126_2066_9210" fill="white">
<path d="M1244 672H1340V768H1244V672Z"/>
</mask>
<path d="M1340 768V769H1341V768H1340ZM1339 672V768H1341V672H1339ZM1340 767H1244V769H1340V767Z" fill="#D0D5DD" mask="url(#path-253-inside-126_2066_9210)"/>
<mask id="path-255-inside-127_2066_9210" fill="white">
<path d="M1340 672H1436V768H1340V672Z"/>
</mask>
<path d="M1436 768V769H1437V768H1436ZM1435 672V768H1437V672H1435ZM1436 767H1340V769H1436V767Z" fill="#D0D5DD" mask="url(#path-255-inside-127_2066_9210)"/>
<mask id="path-257-inside-128_2066_9210" fill="white">
<path d="M1436 672H1532V768H1436V672Z"/>
</mask>
<path d="M1532 768V769H1533V768H1532ZM1531 672V768H1533V672H1531ZM1532 767H1436V769H1532V767Z" fill="#D0D5DD" mask="url(#path-257-inside-128_2066_9210)"/>
<mask id="path-259-inside-129_2066_9210" fill="white">
<path d="M-4 768H92V864H-4V768Z"/>
</mask>
<path d="M92 864V865H93V864H92ZM91 768V864H93V768H91ZM92 863H-4V865H92V863Z" fill="#D0D5DD" mask="url(#path-259-inside-129_2066_9210)"/>
<mask id="path-261-inside-130_2066_9210" fill="white">
<path d="M92 768H188V864H92V768Z"/>
</mask>
<path d="M188 864V865H189V864H188ZM187 768V864H189V768H187ZM188 863H92V865H188V863Z" fill="#D0D5DD" mask="url(#path-261-inside-130_2066_9210)"/>
<mask id="path-263-inside-131_2066_9210" fill="white">
<path d="M188 768H284V864H188V768Z"/>
</mask>
<path d="M284 864V865H285V864H284ZM283 768V864H285V768H283ZM284 863H188V865H284V863Z" fill="#D0D5DD" mask="url(#path-263-inside-131_2066_9210)"/>
<mask id="path-265-inside-132_2066_9210" fill="white">
<path d="M284 768H380V864H284V768Z"/>
</mask>
<path d="M284 768H380V864H284V768Z" fill="#F2F4F7"/>
<path d="M380 864V865H381V864H380ZM379 768V864H381V768H379ZM380 863H284V865H380V863Z" fill="#D0D5DD" mask="url(#path-265-inside-132_2066_9210)"/>
<mask id="path-267-inside-133_2066_9210" fill="white">
<path d="M380 768H476V864H380V768Z"/>
</mask>
<path d="M476 864V865H477V864H476ZM475 768V864H477V768H475ZM476 863H380V865H476V863Z" fill="#D0D5DD" mask="url(#path-267-inside-133_2066_9210)"/>
<mask id="path-269-inside-134_2066_9210" fill="white">
<path d="M476 768H572V864H476V768Z"/>
</mask>
<path d="M572 864V865H573V864H572ZM571 768V864H573V768H571ZM572 863H476V865H572V863Z" fill="#D0D5DD" mask="url(#path-269-inside-134_2066_9210)"/>
<mask id="path-271-inside-135_2066_9210" fill="white">
<path d="M572 768H668V864H572V768Z"/>
</mask>
<path d="M668 864V865H669V864H668ZM667 768V864H669V768H667ZM668 863H572V865H668V863Z" fill="#D0D5DD" mask="url(#path-271-inside-135_2066_9210)"/>
<mask id="path-273-inside-136_2066_9210" fill="white">
<path d="M668 768H764V864H668V768Z"/>
</mask>
<path d="M764 864V865H765V864H764ZM763 768V864H765V768H763ZM764 863H668V865H764V863Z" fill="#D0D5DD" mask="url(#path-273-inside-136_2066_9210)"/>
<mask id="path-275-inside-137_2066_9210" fill="white">
<path d="M764 768H860V864H764V768Z"/>
</mask>
<path d="M860 864V865H861V864H860ZM859 768V864H861V768H859ZM860 863H764V865H860V863Z" fill="#D0D5DD" mask="url(#path-275-inside-137_2066_9210)"/>
<mask id="path-277-inside-138_2066_9210" fill="white">
<path d="M860 768H956V864H860V768Z"/>
</mask>
<path d="M860 768H956V864H860V768Z" fill="#F2F4F7"/>
<path d="M956 864V865H957V864H956ZM955 768V864H957V768H955ZM956 863H860V865H956V863Z" fill="#D0D5DD" mask="url(#path-277-inside-138_2066_9210)"/>
<mask id="path-279-inside-139_2066_9210" fill="white">
<path d="M956 768H1052V864H956V768Z"/>
</mask>
<path d="M1052 864V865H1053V864H1052ZM1051 768V864H1053V768H1051ZM1052 863H956V865H1052V863Z" fill="#D0D5DD" mask="url(#path-279-inside-139_2066_9210)"/>
<mask id="path-281-inside-140_2066_9210" fill="white">
<path d="M1052 768H1148V864H1052V768Z"/>
</mask>
<path d="M1148 864V865H1149V864H1148ZM1147 768V864H1149V768H1147ZM1148 863H1052V865H1148V863Z" fill="#D0D5DD" mask="url(#path-281-inside-140_2066_9210)"/>
<mask id="path-283-inside-141_2066_9210" fill="white">
<path d="M1148 768H1244V864H1148V768Z"/>
</mask>
<path d="M1244 864V865H1245V864H1244ZM1243 768V864H1245V768H1243ZM1244 863H1148V865H1244V863Z" fill="#D0D5DD" mask="url(#path-283-inside-141_2066_9210)"/>
<mask id="path-285-inside-142_2066_9210" fill="white">
<path d="M1244 768H1340V864H1244V768Z"/>
</mask>
<path d="M1340 864V865H1341V864H1340ZM1339 768V864H1341V768H1339ZM1340 863H1244V865H1340V863Z" fill="#D0D5DD" mask="url(#path-285-inside-142_2066_9210)"/>
<mask id="path-287-inside-143_2066_9210" fill="white">
<path d="M1340 768H1436V864H1340V768Z"/>
</mask>
<path d="M1436 864V865H1437V864H1436ZM1435 768V864H1437V768H1435ZM1436 863H1340V865H1436V863Z" fill="#D0D5DD" mask="url(#path-287-inside-143_2066_9210)"/>
<mask id="path-289-inside-144_2066_9210" fill="white">
<path d="M1436 768H1532V864H1436V768Z"/>
</mask>
<path d="M1532 864V865H1533V864H1532ZM1531 768V864H1533V768H1531ZM1532 863H1436V865H1532V863Z" fill="#D0D5DD" mask="url(#path-289-inside-144_2066_9210)"/>
<mask id="path-291-inside-145_2066_9210" fill="white">
<path d="M-4 864H92V960H-4V864Z"/>
</mask>
<path d="M92 960V961H93V960H92ZM91 864V960H93V864H91ZM92 959H-4V961H92V959Z" fill="#D0D5DD" mask="url(#path-291-inside-145_2066_9210)"/>
<mask id="path-293-inside-146_2066_9210" fill="white">
<path d="M92 864H188V960H92V864Z"/>
</mask>
<path d="M188 960V961H189V960H188ZM187 864V960H189V864H187ZM188 959H92V961H188V959Z" fill="#D0D5DD" mask="url(#path-293-inside-146_2066_9210)"/>
<mask id="path-295-inside-147_2066_9210" fill="white">
<path d="M188 864H284V960H188V864Z"/>
</mask>
<path d="M284 960V961H285V960H284ZM283 864V960H285V864H283ZM284 959H188V961H284V959Z" fill="#D0D5DD" mask="url(#path-295-inside-147_2066_9210)"/>
<mask id="path-297-inside-148_2066_9210" fill="white">
<path d="M284 864H380V960H284V864Z"/>
</mask>
<path d="M380 960V961H381V960H380ZM379 864V960H381V864H379ZM380 959H284V961H380V959Z" fill="#D0D5DD" mask="url(#path-297-inside-148_2066_9210)"/>
<mask id="path-299-inside-149_2066_9210" fill="white">
<path d="M380 864H476V960H380V864Z"/>
</mask>
<path d="M476 960V961H477V960H476ZM475 864V960H477V864H475ZM476 959H380V961H476V959Z" fill="#D0D5DD" mask="url(#path-299-inside-149_2066_9210)"/>
<mask id="path-301-inside-150_2066_9210" fill="white">
<path d="M476 864H572V960H476V864Z"/>
</mask>
<path d="M572 960V961H573V960H572ZM571 864V960H573V864H571ZM572 959H476V961H572V959Z" fill="#D0D5DD" mask="url(#path-301-inside-150_2066_9210)"/>
<mask id="path-303-inside-151_2066_9210" fill="white">
<path d="M572 864H668V960H572V864Z"/>
</mask>
<path d="M668 960V961H669V960H668ZM667 864V960H669V864H667ZM668 959H572V961H668V959Z" fill="#D0D5DD" mask="url(#path-303-inside-151_2066_9210)"/>
<mask id="path-305-inside-152_2066_9210" fill="white">
<path d="M668 864H764V960H668V864Z"/>
</mask>
<path d="M764 960V961H765V960H764ZM763 864V960H765V864H763ZM764 959H668V961H764V959Z" fill="#D0D5DD" mask="url(#path-305-inside-152_2066_9210)"/>
<mask id="path-307-inside-153_2066_9210" fill="white">
<path d="M764 864H860V960H764V864Z"/>
</mask>
<path d="M860 960V961H861V960H860ZM859 864V960H861V864H859ZM860 959H764V961H860V959Z" fill="#D0D5DD" mask="url(#path-307-inside-153_2066_9210)"/>
<mask id="path-309-inside-154_2066_9210" fill="white">
<path d="M860 864H956V960H860V864Z"/>
</mask>
<path d="M956 960V961H957V960H956ZM955 864V960H957V864H955ZM956 959H860V961H956V959Z" fill="#D0D5DD" mask="url(#path-309-inside-154_2066_9210)"/>
<mask id="path-311-inside-155_2066_9210" fill="white">
<path d="M956 864H1052V960H956V864Z"/>
</mask>
<path d="M1052 960V961H1053V960H1052ZM1051 864V960H1053V864H1051ZM1052 959H956V961H1052V959Z" fill="#D0D5DD" mask="url(#path-311-inside-155_2066_9210)"/>
<mask id="path-313-inside-156_2066_9210" fill="white">
<path d="M1052 864H1148V960H1052V864Z"/>
</mask>
<path d="M1148 960V961H1149V960H1148ZM1147 864V960H1149V864H1147ZM1148 959H1052V961H1148V959Z" fill="#D0D5DD" mask="url(#path-313-inside-156_2066_9210)"/>
<mask id="path-315-inside-157_2066_9210" fill="white">
<path d="M1148 864H1244V960H1148V864Z"/>
</mask>
<path d="M1244 960V961H1245V960H1244ZM1243 864V960H1245V864H1243ZM1244 959H1148V961H1244V959Z" fill="#D0D5DD" mask="url(#path-315-inside-157_2066_9210)"/>
<mask id="path-317-inside-158_2066_9210" fill="white">
<path d="M1244 864H1340V960H1244V864Z"/>
</mask>
<path d="M1340 960V961H1341V960H1340ZM1339 864V960H1341V864H1339ZM1340 959H1244V961H1340V959Z" fill="#D0D5DD" mask="url(#path-317-inside-158_2066_9210)"/>
<mask id="path-319-inside-159_2066_9210" fill="white">
<path d="M1340 864H1436V960H1340V864Z"/>
</mask>
<path d="M1436 960V961H1437V960H1436ZM1435 864V960H1437V864H1435ZM1436 959H1340V961H1436V959Z" fill="#D0D5DD" mask="url(#path-319-inside-159_2066_9210)"/>
<mask id="path-321-inside-160_2066_9210" fill="white">
<path d="M1436 864H1532V960H1436V864Z"/>
</mask>
<path d="M1436 864H1532V960H1436V864Z" fill="#F2F4F7"/>
<path d="M1532 960V961H1533V960H1532ZM1531 864V960H1533V864H1531ZM1532 959H1436V961H1532V959Z" fill="#D0D5DD" mask="url(#path-321-inside-160_2066_9210)"/>
<mask id="path-323-inside-161_2066_9210" fill="white">
<path d="M-4 960H92V1056H-4V960Z"/>
</mask>
<path d="M92 1056V1057H93V1056H92ZM91 960V1056H93V960H91ZM92 1055H-4V1057H92V1055Z" fill="#D0D5DD" mask="url(#path-323-inside-161_2066_9210)"/>
<mask id="path-325-inside-162_2066_9210" fill="white">
<path d="M92 960H188V1056H92V960Z"/>
</mask>
<path d="M188 1056V1057H189V1056H188ZM187 960V1056H189V960H187ZM188 1055H92V1057H188V1055Z" fill="#D0D5DD" mask="url(#path-325-inside-162_2066_9210)"/>
<mask id="path-327-inside-163_2066_9210" fill="white">
<path d="M188 960H284V1056H188V960Z"/>
</mask>
<path d="M284 1056V1057H285V1056H284ZM283 960V1056H285V960H283ZM284 1055H188V1057H284V1055Z" fill="#D0D5DD" mask="url(#path-327-inside-163_2066_9210)"/>
<mask id="path-329-inside-164_2066_9210" fill="white">
<path d="M284 960H380V1056H284V960Z"/>
</mask>
<path d="M380 1056V1057H381V1056H380ZM379 960V1056H381V960H379ZM380 1055H284V1057H380V1055Z" fill="#D0D5DD" mask="url(#path-329-inside-164_2066_9210)"/>
<mask id="path-331-inside-165_2066_9210" fill="white">
<path d="M380 960H476V1056H380V960Z"/>
</mask>
<path d="M380 960H476V1056H380V960Z" fill="#F2F4F7"/>
<path d="M476 1056V1057H477V1056H476ZM475 960V1056H477V960H475ZM476 1055H380V1057H476V1055Z" fill="#D0D5DD" mask="url(#path-331-inside-165_2066_9210)"/>
<mask id="path-333-inside-166_2066_9210" fill="white">
<path d="M476 960H572V1056H476V960Z"/>
</mask>
<path d="M572 1056V1057H573V1056H572ZM571 960V1056H573V960H571ZM572 1055H476V1057H572V1055Z" fill="#D0D5DD" mask="url(#path-333-inside-166_2066_9210)"/>
<mask id="path-335-inside-167_2066_9210" fill="white">
<path d="M572 960H668V1056H572V960Z"/>
</mask>
<path d="M668 1056V1057H669V1056H668ZM667 960V1056H669V960H667ZM668 1055H572V1057H668V1055Z" fill="#D0D5DD" mask="url(#path-335-inside-167_2066_9210)"/>
<mask id="path-337-inside-168_2066_9210" fill="white">
<path d="M668 960H764V1056H668V960Z"/>
</mask>
<path d="M764 1056V1057H765V1056H764ZM763 960V1056H765V960H763ZM764 1055H668V1057H764V1055Z" fill="#D0D5DD" mask="url(#path-337-inside-168_2066_9210)"/>
<mask id="path-339-inside-169_2066_9210" fill="white">
<path d="M764 960H860V1056H764V960Z"/>
</mask>
<path d="M764 960H860V1056H764V960Z" fill="#F2F4F7"/>
<path d="M860 1056V1057H861V1056H860ZM859 960V1056H861V960H859ZM860 1055H764V1057H860V1055Z" fill="#D0D5DD" mask="url(#path-339-inside-169_2066_9210)"/>
<mask id="path-341-inside-170_2066_9210" fill="white">
<path d="M860 960H956V1056H860V960Z"/>
</mask>
<path d="M956 1056V1057H957V1056H956ZM955 960V1056H957V960H955ZM956 1055H860V1057H956V1055Z" fill="#D0D5DD" mask="url(#path-341-inside-170_2066_9210)"/>
<mask id="path-343-inside-171_2066_9210" fill="white">
<path d="M956 960H1052V1056H956V960Z"/>
</mask>
<path d="M1052 1056V1057H1053V1056H1052ZM1051 960V1056H1053V960H1051ZM1052 1055H956V1057H1052V1055Z" fill="#D0D5DD" mask="url(#path-343-inside-171_2066_9210)"/>
<mask id="path-345-inside-172_2066_9210" fill="white">
<path d="M1052 960H1148V1056H1052V960Z"/>
</mask>
<path d="M1148 1056V1057H1149V1056H1148ZM1147 960V1056H1149V960H1147ZM1148 1055H1052V1057H1148V1055Z" fill="#D0D5DD" mask="url(#path-345-inside-172_2066_9210)"/>
<mask id="path-347-inside-173_2066_9210" fill="white">
<path d="M1148 960H1244V1056H1148V960Z"/>
</mask>
<path d="M1244 1056V1057H1245V1056H1244ZM1243 960V1056H1245V960H1243ZM1244 1055H1148V1057H1244V1055Z" fill="#D0D5DD" mask="url(#path-347-inside-173_2066_9210)"/>
<mask id="path-349-inside-174_2066_9210" fill="white">
<path d="M1244 960H1340V1056H1244V960Z"/>
</mask>
<path d="M1340 1056V1057H1341V1056H1340ZM1339 960V1056H1341V960H1339ZM1340 1055H1244V1057H1340V1055Z" fill="#D0D5DD" mask="url(#path-349-inside-174_2066_9210)"/>
<mask id="path-351-inside-175_2066_9210" fill="white">
<path d="M1340 960H1436V1056H1340V960Z"/>
</mask>
<path d="M1436 1056V1057H1437V1056H1436ZM1435 960V1056H1437V960H1435ZM1436 1055H1340V1057H1436V1055Z" fill="#D0D5DD" mask="url(#path-351-inside-175_2066_9210)"/>
<mask id="path-353-inside-176_2066_9210" fill="white">
<path d="M1436 960H1532V1056H1436V960Z"/>
</mask>
<path d="M1532 1056V1057H1533V1056H1532ZM1531 960V1056H1533V960H1531ZM1532 1055H1436V1057H1532V1055Z" fill="#D0D5DD" mask="url(#path-353-inside-176_2066_9210)"/>
</g>
<rect x="-195.5" y="0.5" width="1919" height="1439" stroke="#D0D5DD"/>
</g>
<defs>
<radialGradient id="paint0_radial_2066_9210" cx="0" cy="0" r="1" gradientUnits="userSpaceOnUse" gradientTransform="translate(720 -0.000171661) rotate(90) scale(1440 751.588)">
<stop/>
<stop offset="0.953125" stop-opacity="0"/>
</radialGradient>
<clipPath id="clip0_2066_9210">
<rect x="-196" width="1920" height="1440" fill="white"/>
</clipPath>
</defs>
</svg>
