<?xml version="1.0" encoding="UTF-8"?>
<svg id="Layer_1" xmlns="http://www.w3.org/2000/svg" version="1.1" xmlns:xlink="http://www.w3.org/1999/xlink" viewBox="0 0 52 52">
  <!-- Generator: Adobe Illustrator 30.0.0, SVG Export Plug-In . SVG Version: 2.1.1 Build 123)  -->
  <defs>
    <style>
      .st0 {
        fill: none;
        stroke: #eaecf0;
      }

      .st1 {
        fill: #fff;
      }

      .st2 {
        mask: url(#mask);
      }

      .st3, .st4 {
        fill-rule: evenodd;
      }

      .st5 {
        fill: #3f00c9;
      }

      .st6 {
        fill: url(#linear-gradient);
      }

      .st4 {
        fill: #6b1aff;
      }
    </style>
    <mask id="mask" x="18" y="12" width="22" height="27" maskUnits="userSpaceOnUse">
      <g id="path-6-outside-1_1985_8817">
        <rect class="st1" x="18" y="12" width="22" height="27"/>
        <path class="st3" d="M22.47,19.61c0,3.67,2.93,6.61,6.58,6.61s6.58-2.94,6.58-6.61-2.93-6.61-6.58-6.61-6.58,2.94-6.58,6.61ZM39,33.72c0-3.4-4.58-4.25-9.95-4.25s-9.95.88-9.95,4.28,4.58,4.25,9.95,4.25,9.95-.88,9.95-4.28Z"/>
      </g>
    </mask>
    <linearGradient id="linear-gradient" x1="38.33" y1="35.55" x2="22.02" y2="19.47" gradientTransform="translate(0 54) scale(1 -1)" gradientUnits="userSpaceOnUse">
      <stop offset="0" stop-color="#fff" stop-opacity=".25"/>
      <stop offset="1" stop-color="#fff" stop-opacity="0"/>
    </linearGradient>
  </defs>
  <g>
    <rect class="st1" x="2" y="1" width="48" height="48" rx="10" ry="10" shape-rendering="crispEdges"/>
    <rect class="st0" x="2.5" y="1.5" width="47" height="47" rx="9.5" ry="9.5" shape-rendering="crispEdges"/>
  </g>
  <path class="st4" d="M16.57,19.96c0,2.8,2.23,5.04,5.02,5.04s5.02-2.24,5.02-5.04-2.23-5.04-5.02-5.04-5.02,2.24-5.02,5.04ZM29.17,30.71c0-2.59-3.49-3.24-7.59-3.24s-7.59.67-7.59,3.26,3.5,3.24,7.59,3.24,7.59-.67,7.59-3.26Z"/>
  <path class="st5" d="M23.23,29.13c2.5,0,4.63.43,4.63,2.15s-2.12,2.17-4.63,2.17-4.63-.43-4.63-2.15,2.12-2.17,4.63-2.17"/>
  <path class="st5" d="M22.81,22.51c-1.4,0-2.53-1.15-2.53-2.59s1.12-2.59,2.53-2.59,2.53,1.15,2.53,2.59-1.12,2.59-2.53,2.59"/>
  <g>
    <path class="st4" d="M22.47,19.61c0,3.67,2.93,6.61,6.58,6.61s6.58-2.94,6.58-6.61-2.93-6.61-6.58-6.61-6.58,2.94-6.58,6.61ZM39,33.72c0-3.4-4.58-4.25-9.95-4.25s-9.95.88-9.95,4.28,4.58,4.25,9.95,4.25,9.95-.88,9.95-4.28Z"/>
    <g class="st2">
      <path class="st6" d="M29.05,27.09c-4.13,0-7.44-3.33-7.44-7.47h1.71c0,3.2,2.55,5.76,5.73,5.76v1.71ZM36.49,19.61c0,4.14-3.31,7.47-7.44,7.47v-1.71c3.18,0,5.73-2.56,5.73-5.76h1.71ZM29.05,12.14c4.13,0,7.44,3.33,7.44,7.47h-1.71c0-3.2-2.55-5.76-5.73-5.76v-1.71ZM21.61,19.61c0-4.14,3.31-7.47,7.44-7.47v1.71c-3.18,0-5.73,2.56-5.73,5.76h-1.71ZM29.05,28.61c2.7,0,5.31.21,7.27.9.99.35,1.87.83,2.51,1.53.66.72,1.03,1.61,1.03,2.68h-1.71c0-.64-.21-1.12-.57-1.52-.39-.42-.99-.78-1.82-1.07-1.67-.59-4.04-.8-6.7-.8v-1.71ZM18.24,33.75c0-1.06.36-1.96,1.02-2.68.64-.7,1.52-1.19,2.5-1.54,1.96-.7,4.57-.91,7.29-.91v1.71c-2.68,0-5.04.22-6.71.82-.83.29-1.43.66-1.81,1.08-.37.4-.57.89-.57,1.53h-1.71ZM29.05,38.86c-2.7,0-5.31-.21-7.27-.9-.99-.35-1.87-.83-2.51-1.53-.66-.72-1.03-1.61-1.03-2.68h1.71c0,.64.21,1.12.57,1.52.39.42.99.78,1.82,1.07,1.67.59,4.04.8,6.7.8v1.71ZM39.86,33.72c0,1.06-.36,1.96-1.02,2.68-.64.7-1.52,1.19-2.5,1.54-1.96.7-4.57.91-7.29.91v-1.71c2.68,0,5.04-.22,6.71-.82.83-.29,1.43-.66,1.81-1.08.37-.4.57-.89.57-1.53h1.71Z"/>
    </g>
  </g>
</svg>