<?xml version="1.0" encoding="UTF-8"?>
<svg id="Layer_1" xmlns="http://www.w3.org/2000/svg" version="1.1" xmlns:xlink="http://www.w3.org/1999/xlink" viewBox="0 0 52 52">
  <!-- Generator: Adobe Illustrator 30.0.0, SVG Export Plug-In . SVG Version: 2.1.1 Build 123)  -->
  <defs>
    <style>
      .st0 {
        stroke: #eaecf0;
      }

      .st0, .st1 {
        fill: none;
      }

      .st2 {
        fill: #fff;
      }

      .st1 {
        stroke: url(#linear-gradient);
        stroke-linecap: round;
        stroke-linejoin: round;
        stroke-width: .79px;
      }

      .st3 {
        fill: #6b1aff;
      }

      .st4 {
        fill: #3f00c9;
      }
    </style>
    <linearGradient id="linear-gradient" x1="13.03" y1="40.04" x2="30.39" y2="19.02" gradientTransform="translate(0 54) scale(1 -1)" gradientUnits="userSpaceOnUse">
      <stop offset="0" stop-color="#8eb4ff"/>
      <stop offset="1" stop-color="#8eb4ff"/>
    </linearGradient>
  </defs>
  <g>
    <rect class="st2" x="2" y="1" width="48" height="48" rx="10" ry="10" shape-rendering="crispEdges"/>
    <rect class="st0" x="2.5" y="1.5" width="47" height="47" rx="9.5" ry="9.5" shape-rendering="crispEdges"/>
  </g>
  <path class="st4" d="M32.96,17.87c.41-.19.89-.17,1.28.06.39.23.62.63.62,1.06v6.7c0,.44-.23.83-.62,1.06-.21.12-.45.19-.69.19-.2,0-.4-.04-.59-.13l-10.67-4.39,10.67-4.55Z"/>
  <path class="st3" d="M37.06,18.1c.63-.31,1.37-.27,1.98.09.6.36.96.99.96,1.67v10.54c0,.69-.36,1.31-.96,1.67-.33.2-.7.3-1.07.3-.31,0-.62-.07-.91-.21l-16.49-6.9,16.49-7.15Z"/>
  <g>
    <path class="st3" d="M26.33,35h-8.38c-3.51,0-5.95-2.23-5.95-5.41v-9.17c0-3.19,2.45-5.41,5.95-5.41h8.38c3.51,0,5.95,2.23,5.95,5.41v9.17c0,3.19-2.45,5.41-5.95,5.41Z"/>
    <path class="st1" d="M17.95,35.4h8.38c1.84,0,3.42-.58,4.56-1.62,1.14-1.03,1.79-2.5,1.79-4.2v-9.17c0-1.7-.66-3.16-1.79-4.2-1.13-1.03-2.72-1.61-4.56-1.61h-8.38c-1.84,0-3.42.58-4.56,1.61-1.14,1.03-1.79,2.5-1.79,4.2v9.17c0,1.7.66,3.16,1.79,4.2,1.13,1.03,2.72,1.62,4.56,1.62Z"/>
  </g>
</svg>