<?xml version="1.0" encoding="UTF-8"?>
<svg id="Layer_1" xmlns="http://www.w3.org/2000/svg" version="1.1" xmlns:xlink="http://www.w3.org/1999/xlink" viewBox="0 0 52 52">
  <!-- Generator: Adobe Illustrator 30.0.0, SVG Export Plug-In . SVG Version: 2.1.1 Build 123)  -->
  <defs>
    <style>
      .st0 {
        fill: none;
        stroke: #eaecf0;
      }

      .st1 {
        fill: #fff;
      }

      .st2 {
        mask: url(#mask);
      }

      .st3, .st4 {
        fill-rule: evenodd;
      }

      .st5 {
        fill: #3f00c9;
      }

      .st6 {
        fill: url(#linear-gradient);
      }

      .st4 {
        fill: #6b1aff;
      }
    </style>
    <mask id="mask" x="9.84" y="8.59" width="28.67" height="31.64" maskUnits="userSpaceOnUse">
      <g id="path-5-outside-1_1957_25035">
        <rect class="st1" x="9.84" y="8.59" width="28.67" height="31.64"/>
        <path class="st3" d="M33.17,19.35c-1.3-4.61-5.95-6.86-10.4-5.02-2.14.88-3.94,2.61-5.01,4.8-1.07,2.19-1.32,4.66-.7,6.88,1.3,4.61,5.95,6.86,10.4,5.02,4.45-1.84,7-7.07,5.71-11.68ZM18.81,32.66l-1.84,2.97-.04.02c-.34.7-.12,1.52.51,1.82.63.3,1.41-.02,1.76-.72l1.33-3.16c.13-.27.17-.58.09-.85-.08-.28-.26-.5-.5-.61-.47-.22-1.05.02-1.31.54Z"/>
      </g>
    </mask>
    <linearGradient id="linear-gradient" x1="29.21" y1="39.03" x2="17.48" y2="16.94" gradientTransform="translate(0 54) scale(1 -1)" gradientUnits="userSpaceOnUse">
      <stop offset="0" stop-color="#8eb4ff"/>
      <stop offset="1" stop-color="#8eb4ff"/>
    </linearGradient>
  </defs>
  <g>
    <rect class="st1" x="2" y="1" width="48" height="48" rx="10" ry="10" shape-rendering="crispEdges"/>
    <rect class="st0" x="2.5" y="1.5" width="47" height="47" rx="9.5" ry="9.5" shape-rendering="crispEdges"/>
  </g>
  <path class="st4" d="M25.81,24.89c.87-3.09,3.99-4.6,6.97-3.36,1.43.59,2.64,1.75,3.36,3.22.72,1.47.89,3.13.47,4.61-.87,3.09-3.99,4.6-6.97,3.36-2.98-1.23-4.69-4.74-3.83-7.83ZM35.44,33.82l1.24,1.99h.03c.23.48.08,1.03-.34,1.23-.42.2-.95-.01-1.18-.49l-.89-2.12c-.09-.18-.11-.39-.06-.57.05-.18.17-.33.34-.41.31-.15.7.01.88.36Z"/>
  <path class="st5" d="M32.05,23.97c-1.64-.62-3.34.3-3.8,2.04-.46,1.74.5,3.65,2.14,4.27,1.64.62,3.34-.3,3.8-2.04.22-.84.12-1.75-.28-2.55-.4-.8-1.07-1.42-1.85-1.71Z"/>
  <g>
    <path class="st4" d="M33.17,19.35c-1.3-4.61-5.95-6.86-10.4-5.02-2.14.88-3.94,2.61-5.01,4.8-1.07,2.19-1.32,4.66-.7,6.88,1.3,4.61,5.95,6.86,10.4,5.02,4.45-1.84,7-7.07,5.71-11.68ZM18.81,32.66l-1.84,2.97-.04.02c-.34.7-.12,1.52.51,1.82.63.3,1.41-.02,1.76-.72l1.33-3.16c.13-.27.17-.58.09-.85-.08-.28-.26-.5-.5-.61-.47-.22-1.05.02-1.31.54Z"/>
    <g class="st2">
      <path class="st6" d="M22.77,14.33l-.33-1.11.33,1.11ZM17.76,19.13l1,.48h0l-1-.48ZM17.06,26.01l-1.09.43,1.09-.43ZM27.46,31.02l-.33-1.11.33,1.11ZM16.97,35.63l.93.59c-.15.23-.36.42-.6.52l-.33-1.11ZM18.81,32.66l.99.49s-.04.07-.06.11l-.93-.59ZM16.93,35.65l-1-.48c.14-.29.38-.52.67-.63l.33,1.11ZM17.44,37.47l.54-1.1-.54,1.1ZM19.2,36.75l1.03.41s-.02.05-.03.07l-1-.48ZM20.53,33.59l-1.03-.41s.02-.05.03-.07l1,.48ZM20.12,32.12l.53-1.1h0s-.54,1.1-.54,1.1ZM22.44,13.22c5.06-2.09,10.35.47,11.82,5.7l-2.18.86c-1.12-3.99-5.14-5.92-8.97-4.34l-.67-2.22ZM16.76,18.65c1.21-2.48,3.25-4.43,5.67-5.44l.67,2.22c-1.85.76-3.41,2.26-4.34,4.16l-2-.95ZM15.97,26.44c-.7-2.51-.42-5.31.79-7.78l2,.95c-.93,1.9-1.15,4.05-.61,5.97l-2.18.86ZM27.8,32.14c-5.06,2.09-10.35-.47-11.82-5.7l2.18-.86c1.12,3.99,5.14,5.92,8.97,4.34l.67,2.22ZM34.26,18.92c1.47,5.22-1.42,11.13-6.46,13.22l-.67-2.22c3.85-1.59,6.07-6.13,4.95-10.14l2.18-.86ZM16.04,35.04l1.84-2.97,1.87,1.19-1.84,2.97-1.87-1.19ZM16.6,34.54l.04-.02.66,2.22-.04.02-.66-2.22ZM16.9,38.57c-1.19-.57-1.6-2.1-.97-3.39l2,.95c-.06.11,0,.21.06.24l-1.09,2.2ZM20.2,37.22c-.63,1.29-2.11,1.92-3.3,1.34l1.09-2.2c.06.03.16,0,.22-.1l2,.95ZM21.56,34l-1.33,3.16-2.06-.82,1.33-3.16,2.06.82ZM21.71,32.31c.16.57.09,1.2-.18,1.76l-2-.96s-.01.03,0,.05l2.18-.86ZM20.66,31.03c.51.25.89.71,1.05,1.28l-2.18.86s.02.04.05.06l1.08-2.2ZM17.82,32.18c.55-1.1,1.81-1.64,2.84-1.15l-1.07,2.2c.1.05.19-.01.22-.08l-1.99-.97Z"/>
    </g>
  </g>
</svg>