<?xml version="1.0" encoding="UTF-8"?>
<svg id="Layer_1" xmlns="http://www.w3.org/2000/svg" version="1.1" xmlns:xlink="http://www.w3.org/1999/xlink" viewBox="0 0 52 52">
  <!-- Generator: Adobe Illustrator 30.0.0, SVG Export Plug-In . SVG Version: 2.1.1 Build 123)  -->
  <defs>
    <style>
      .st0 {
        fill: none;
        stroke: #eaecf0;
      }

      .st1 {
        mask: url(#mask-1);
      }

      .st2 {
        fill: url(#linear-gradient1);
        fill-opacity: .5;
      }

      .st3 {
        fill: #fff;
      }

      .st4 {
        mask: url(#mask);
      }

      .st5 {
        fill: #6b1aff;
      }

      .st6 {
        fill: #3f00c9;
      }

      .st7 {
        fill: url(#linear-gradient);
      }
    </style>
    <mask id="mask" x="12" y="17.05" width="21" height="19" maskUnits="userSpaceOnUse">
      <g id="path-5-outside-1_1957_25044">
        <rect class="st3" x="12" y="17.05" width="21" height="19"/>
        <path d="M26.95,18.05h-8.43c-3.3,0-5.52,2.07-5.52,5.16v7.12c0,3.07,2.22,5.15,5.52,5.15h8.43c3.3,0,5.51-2.07,5.51-5.15v-7.12c0-3.08-2.21-5.16-5.51-5.16Z"/>
      </g>
    </mask>
    <linearGradient id="linear-gradient" x1="17.28" y1="34.77" x2="28.07" y2="19.84" gradientTransform="translate(0 54) scale(1 -1)" gradientUnits="userSpaceOnUse">
      <stop offset="0" stop-color="#fff" stop-opacity=".25"/>
      <stop offset="1" stop-color="#fff" stop-opacity="0"/>
    </linearGradient>
    <mask id="mask-1" x="18.34" y="23.86" width="8.77" height="5.8" maskUnits="userSpaceOnUse">
      <g id="path-7-inside-2_1957_25044">
        <path class="st3" d="M21.57,29.59c-.22,0-.44-.07-.6-.22l-2.31-2.07c-.33-.3-.33-.78,0-1.08.33-.3.87-.3,1.2,0l1.71,1.53,4.02-3.6c.33-.3.87-.3,1.2,0,.33.3.33.78,0,1.08l-4.62,4.13c-.17.15-.38.22-.6.22Z"/>
      </g>
    </mask>
    <linearGradient id="linear-gradient1" x1="19.34" y1="27.28" x2="26.66" y2="27.21" gradientTransform="translate(0 54) scale(1 -1)" gradientUnits="userSpaceOnUse">
      <stop offset="0" stop-color="#8eb4ff"/>
      <stop offset="1" stop-color="#8eb4ff"/>
    </linearGradient>
  </defs>
  <g>
    <rect class="st3" x="2" y="1" width="48" height="48" rx="10" ry="10" shape-rendering="crispEdges"/>
    <rect class="st0" x="2.5" y="1.5" width="47" height="47" rx="9.5" ry="9.5" shape-rendering="crispEdges"/>
  </g>
  <path class="st5" d="M34.34,16.58l-6.84-1.64c-2.48-.6-4.32.36-4.98,2.59l-2.26,7.55c-.68,2.27.39,3.89,2.87,4.48l6.84,1.64c2.52.61,4.31-.33,4.99-2.6l2.26-7.55c.67-2.23-.35-3.87-2.87-4.47Z"/>
  <path class="st6" d="M32.56,18.65l-4.66-1.12c-1.69-.41-2.94.24-3.4,1.76l-1.54,5.15c-.46,1.54.26,2.65,1.95,3.05l4.66,1.12c1.72.41,2.93-.22,3.4-1.77l1.54-5.15c.45-1.52-.24-2.64-1.96-3.05Z"/>
  <g>
    <path class="st5" d="M26.95,18.05h-8.43c-3.3,0-5.52,2.07-5.52,5.16v7.12c0,3.07,2.22,5.15,5.52,5.15h8.43c3.3,0,5.51-2.07,5.51-5.15v-7.12c0-3.08-2.21-5.16-5.51-5.16Z"/>
    <g class="st4">
      <path class="st7" d="M26.95,18.41c.19,0,.35-.16.35-.35s-.16-.35-.35-.35v.7ZM26.95,17.7c-.19,0-.35.16-.35.35s.16.35.35.35v-.7ZM26.95,17.7h-8.43v.7h8.43v-.7ZM18.52,17.7c-1.72,0-3.19.54-4.23,1.52-1.04.98-1.63,2.36-1.63,3.99h.7c0-1.45.52-2.65,1.41-3.48.89-.83,2.18-1.33,3.75-1.33v-.7ZM12.65,23.21v7.12h.7v-7.12h-.7ZM12.65,30.33c0,1.63.59,3.01,1.63,3.98,1.04.97,2.51,1.52,4.23,1.52v-.71c-1.57,0-2.86-.49-3.75-1.33-.89-.83-1.41-2.02-1.41-3.47h-.7ZM18.52,35.83h8.43v-.71h-8.43v.71ZM26.95,35.83c1.72,0,3.19-.54,4.23-1.52,1.04-.98,1.63-2.36,1.63-3.98h-.71c0,1.45-.52,2.64-1.4,3.47-.89.83-2.17,1.33-3.75,1.33v.71ZM32.81,30.33v-7.12h-.71v7.12h.71ZM32.81,23.21c0-1.63-.59-3.02-1.63-3.99-1.04-.97-2.51-1.52-4.23-1.52v.7c1.57,0,2.86.49,3.75,1.33.89.83,1.4,2.02,1.4,3.48h.71Z"/>
    </g>
  </g>
  <g>
    <path class="st6" d="M21.57,29.59c-.22,0-.44-.07-.6-.22l-2.31-2.07c-.33-.3-.33-.78,0-1.08.33-.3.87-.3,1.2,0l1.71,1.53,4.02-3.6c.33-.3.87-.3,1.2,0,.33.3.33.78,0,1.08l-4.62,4.13c-.17.15-.38.22-.6.22Z"/>
    <g class="st1">
      <path class="st2" d="M18.66,26.23l.05.05h0l-.05-.05ZM21.57,27.75l-.05.05.05.04.05-.04-.05-.05ZM26.79,25.24l-.05-.05.05.05ZM22.18,29.37l.05.05-.05-.05ZM21.57,29.52c-.2,0-.4-.07-.56-.2l-.09.11c.18.16.42.24.65.24v-.14ZM21.02,29.32l-2.31-2.07-.09.11,2.31,2.07.09-.11ZM18.71,27.25c-.3-.27-.3-.7,0-.97l-.09-.11c-.36.33-.36.86,0,1.18l.09-.11ZM18.71,26.28c.31-.27.8-.27,1.11,0l.09-.1c-.36-.32-.94-.32-1.3,0l.09.11ZM19.82,26.28l1.71,1.53.09-.1-1.71-1.53-.09.1ZM21.62,27.81l4.02-3.6-.09-.1-4.02,3.6.09.1ZM25.64,24.21c.31-.27.8-.27,1.11,0l.09-.1c-.36-.32-.94-.32-1.3,0l.09.1ZM26.75,24.21c.3.27.3.7,0,.97l.09.11c.36-.33.36-.86,0-1.18l-.09.1ZM26.75,25.18l-4.62,4.13.09.11,4.62-4.13-.09-.11ZM22.13,29.32c-.15.14-.35.2-.56.2v.14c.23,0,.47-.08.65-.24l-.09-.11Z"/>
    </g>
  </g>
</svg>