<?xml version="1.0" encoding="UTF-8"?>
<svg id="Layer_1" xmlns="http://www.w3.org/2000/svg" version="1.1" viewBox="0 0 501 500">
  <!-- Generator: Adobe Illustrator 30.0.0, SVG Export Plug-In . SVG Version: 2.1.1 Build 123)  -->
  <defs>
    <style>
      .st0 {
        fill: #b57aff;
      }

      .st0, .st1, .st2, .st3, .st4, .st5, .st6 {
        stroke: #263238;
      }

      .st0, .st1, .st3, .st4, .st5, .st6 {
        stroke-linecap: round;
        stroke-linejoin: round;
      }

      .st1, .st7 {
        fill: #fff;
      }

      .st2 {
        stroke-miterlimit: 10;
      }

      .st2, .st8 {
        fill: #6b1aff;
      }

      .st9 {
        fill: #263238;
      }

      .st3, .st10 {
        fill: #f2ebff;
      }

      .st11 {
        fill: #407bff;
      }

      .st4 {
        stroke-width: 2px;
      }

      .st4, .st6 {
        fill: none;
      }

      .st5 {
        fill: #4a008c;
      }
    </style>
  </defs>
  <path class="st11" d="M329.72,43.77s-73.45-21.63-146,22.12c-72.55,43.75-109.49,125.32-141.22,190.78-31.73,65.46-14.15,129.57,40.82,156.5,54.97,26.93,92.77-18.6,170.17-24.54,77.4-5.94,98.14,3.72,162.63-41.6,64.49-45.32,76.76-145.46,26.59-216.64-50.17-71.18-112.99-86.62-112.99-86.62Z"/>
  <path class="st10" d="M329.72,43.77s-73.45-21.63-146,22.12c-72.55,43.75-109.49,125.32-141.22,190.78-31.73,65.46-14.15,129.57,40.82,156.5,54.97,26.93,92.77-18.6,170.17-24.54,77.4-5.94,98.14,3.72,162.63-41.6,64.49-45.32,76.76-145.46,26.59-216.64-50.17-71.18-112.99-86.62-112.99-86.62Z"/>
  <path class="st11" d="M72.43,424.65s-24.77-52.76-19.39-54.28c5.38-1.52,16.66,6.88,16.66,6.88,0,0-33.1-88.7-24.53-95.58,8.57-6.88,24.57,28.33,24.57,28.33,0,0-17.09-54.33-15.08-75,2.01-20.67,23.72-.76,23.72-.76,0,0-17.39-74.17-1.24-78,16.15-3.83,15.61,84.87,15.61,84.87,0,0,5.3-63.47,11.77-45.88,6.47,17.59-7.13,76.46-7.13,76.46,0,0,8.87-19.88,13.8-1.53s-9.8,92.52-9.8,92.52c0,0,12.52-12.23,13.69,3.06,1.17,15.29-25.92,62.7-25.92,62.7l-15.33,1.56-1.4-5.35Z"/>
  <path class="st3" d="M72.43,424.65s-24.77-52.76-19.39-54.28c5.38-1.52,16.66,6.88,16.66,6.88,0,0-33.1-88.7-24.53-95.58,8.57-6.88,24.57,28.33,24.57,28.33,0,0-17.09-54.33-15.08-75,2.01-20.67,23.72-.76,23.72-.76,0,0-17.39-74.17-1.24-78,16.15-3.83,15.61,84.87,15.61,84.87,0,0,5.3-63.47,11.77-45.88,6.47,17.59-7.13,76.46-7.13,76.46,0,0,8.87-19.88,13.8-1.53s-9.8,92.52-9.8,92.52c0,0,12.52-12.23,13.69,3.06,1.17,15.29-25.92,62.7-25.92,62.7l-15.33,1.56-1.4-5.35Z"/>
  <path class="st6" d="M77.71,427s-20.64-36.7-16.82-43.59c3.82-6.89,15.29,9.18,15.29,9.18,0,0-26-65-22.17-71.11,3.83-6.11,16.06,20.65,16.06,20.65,0,0-4.57-89.51,3.05-86.46,7.62,3.05,8.38,45.88,8.38,45.88,0,0-4.58-101.69,2.3-98.63,6.88,3.06,6.12,116.22,6.12,116.22,0,0,13.76-43.59,16-23.71s-17.58,73.41-17.58,73.41c0,0,19.16-42.06,21.49-19.84,2.33,22.22-15.33,63.42-15.33,63.42,0,0,6.88-16.82,6.88-7.65s-5.35,20.65-5.35,20.65"/>
  <path class="st5" d="M51.93,383.46l-13.17,43.4h35.67l13.57-43.17-36.07-.23Z"/>
  <path class="st3" d="M135.1,426.79H60.77l-8.84-43.33h74.33l8.84,43.33Z"/>
  <path class="st6" d="M127.44,419.46h-62l-4.63-22.67h62l4.63,22.67Z"/>
  <path class="st6" d="M66.14,396.88l4.59,22.48"/>
  <path class="st6" d="M71.83,396.88l4.59,22.48"/>
  <path class="st6" d="M77.52,396.88l4.59,22.48"/>
  <path class="st6" d="M83.2,396.88l4.59,22.48"/>
  <path class="st6" d="M88.89,396.88l4.59,22.48"/>
  <path class="st6" d="M94.58,396.88l4.59,22.48"/>
  <path class="st6" d="M100.26,396.88l4.59,22.48"/>
  <path class="st6" d="M105.95,396.88l4.59,22.48"/>
  <path class="st6" d="M111.63,396.88l4.59,22.48"/>
  <path class="st6" d="M117.32,396.88l4.59,22.48"/>
  <path class="st6" d="M61.87,401.27h61.65"/>
  <path class="st6" d="M62.79,405.79h61.65"/>
  <path class="st6" d="M63.72,410.32h61.64"/>
  <path class="st6" d="M64.64,414.84h61.65"/>
  <path class="st5" d="M87.82,392.87h-27.53l-.44-2.2h27.52l.45,2.2Z"/>
  <path class="st5" d="M463.5,316h-89.66c-4.22.1-8.26,1.7-11.4,4.52-3.14,2.82-5.17,6.67-5.72,10.86l-11,97.23h105l12.78-112.61Z"/>
  <path class="st2" d="M463.97,316c-3.51.08-6.87,1.42-9.47,3.76-2.61,2.34-4.29,5.54-4.75,9.02l-11.31,99.83h25.54l11.32-99.83c.23-1.61.11-3.25-.35-4.81-.47-1.56-1.27-2.99-2.35-4.21-1.08-1.22-2.41-2.18-3.9-2.83-1.49-.65-3.11-.96-4.73-.93Z"/>
  <path class="st0" d="M344.79,286.79c-6.3,4.5-13.11,8.24-20.29,11.14-12.73,5.3-17.85,6.9-17.85,6.9l3.53,121.8h92.42s-11.85-76.37-11.85-102,1.06-30.63,1.06-30.63l-30.4-7.78-16.62.57Z"/>
  <path class="st2" d="M334.71,291.92c-2.88,20.69-4.59,41.52-5.12,62.4-.53,31.29,5.48,73,5.48,73h-67.71c8.42-15.93,14.44-33.01,17.87-50.7,5-25.33,9-68.27,10.06-68.8,1.06-.53,36.95-13.82,39.42-15.9Z"/>
  <path class="st6" d="M303.96,427.33s-6.9-46.67-6.55-57.63c.35-10.96,2.09-48.08,2.09-48.08"/>
  <path class="st2" d="M372.72,288.74s-8.66,39.77-9.37,72.48c-.71,32.71-3,66.29-3,66.29h54.75s.71-29.88,0-40.13c-.71-10.25-.71-8.13-.71-8.13l21.22,5.48s-13.62-65.59-16.09-72.83c-2.47-7.24-1.24-9.55-2.83-10.79-1.59-1.24-43.97-12.37-43.97-12.37Z"/>
  <path class="st3" d="M273.83,400.29c1.43,2.19,3.11,4.2,5,6,2.43,2.08,7.64,1,10.41,3.84,2.77,2.84-.26,11.51-3.76,14.54-6,5.17-2.82-10.52-2.82-10.52-2.12,1.45-4.45,2.55-6.92,3.25-3.4.78-12.15-1.88-15.08-2s-7-.68-8.56-3.94c-1.56-3.26,8.12-7.19,12.42-8.75,3.04-1.04,6.15-1.85,9.31-2.42Z"/>
  <path class="st3" d="M255.31,404.89c-.93-.25-1.9-.22-2.81.08-.91.3-1.71.86-2.3,1.61-2,2.63-6,14.51-4.83,16.8,1.17,2.29,4.2-.92,5.64-4.69.61-1.82,1.43-3.56,2.44-5.19,0,0,1.58.77,2.69-1.29,1.11-2.06,2.23-5.15-.83-7.33Z"/>
  <path class="st3" d="M260.97,402.82c-.97-.56-2.1-.76-3.2-.58-1.1.18-2.11.74-2.85,1.58-2.81,3-.88,15.61.61,19.47,1.49,3.86,4.31,3.38,4.73,1,.42-2.38.9-14.25,1.05-17,.12-1.5,0-3.01-.34-4.47Z"/>
  <path class="st3" d="M266.97,401.46c-.96-.6-2.1-.83-3.21-.65-1.11.18-2.12.77-2.83,1.65-2.79,3.17-.73,16.51.8,20.61s4.35,3.62,4.75,1.07c.4-2.55.76-15.08.88-18,.1-1.57-.03-3.15-.38-4.68Z"/>
  <path class="st3" d="M275.75,403.08s-2.33-5.21-6.13-4.35c-3.8.86-5,6-4.3,13.8.7,7.8,2.16,14,4.28,14.22s4.43-4.49,4.85-10.58c.42-6.09,1.05-9.73,1.05-9.73"/>
  <path class="st6" d="M275.75,403.08s-2.33-5.21-6.13-4.35c-3.8.86-5,6-4.3,13.8.7,7.8,2.16,14,4.28,14.22s4.43-4.49,4.85-10.58c.42-6.09,1.05-9.73,1.05-9.73"/>
  <path class="st0" d="M324.61,348.57h-23.57v36.18h23.57v-36.18Z"/>
  <path class="st3" d="M314.47,338.03h-4.34v16.74h4.34v-16.74Z"/>
  <path class="st3" d="M316.95,358.7h-10.13v13.23h10.13v-13.23Z"/>
  <path class="st6" d="M305.17,375.86h13.85"/>
  <path class="st6" d="M303.1,378.75h17.78"/>
  <path class="st0" d="M342.32,281.67s-7.61,5.12-9,9.19c-1.39,4.07-7.25,21.39-9.55,27.93-2.3,6.54-15.38,12.2-13.61,13.44,1.77,1.24,18.92,2.82,18.92,2.82,0,0,3.89,15.21,4.77,19.1.88,3.89,6.19,15.73,6.19,15.73,0,0,15.73-18.92,18.21-24,1.7-3.43,3.65-6.74,5.83-9.9,0,0,6.72,1.59,11,2.3s15.91,1.76,15.38-.18-6.36-10.43-8.66-18.74c-2.3-8.31-.89-26.52-3.71-33.59-2.82-7.07-9-8.13-11.14-8.66-2.14-.53-21.45,1.55-24.63,4.56Z"/>
  <path class="st3" d="M339.84,276.19s2.3,12.9,2,23.33c-.3,10.43-4.07,33.77-3.89,45.79.18,7.99.83,15.95,1.94,23.86,0,0,17.33-23.86,23.69-43.31,6.36-19.45,8.13-36.06,8.13-37.3s.35-30.05.35-30.05c0,0-18.43,19.27-32.22,17.68Z"/>
  <path class="st8" d="M371.87,270.74c.07-6.48.14-12.23.14-12.23,0,0-18.38,19.27-32.17,17.68,0,0,.65,3.63,1.2,8.6,1.8,1.24,3.81,2.15,5.92,2.71,6.38,1.28,13.53-2.29,18.38-8.42,1.79-2.26,4.16-5.34,6.53-8.34Z"/>
  <path class="st9" d="M384.48,212.19c9.71,0,17.59-7.79,17.59-17.41s-7.88-17.41-17.59-17.41-17.59,7.79-17.59,17.41,7.88,17.41,17.59,17.41Z"/>
  <path class="st9" d="M313.25,225.2s-9.44-2.56-11-7.66c-1.56-5.1,4.09-23,22.47-32.17s35.24-4.09,42.64-2.05c7.4,2.04,12.77,5.88,17.62,19.41,4.85,13.53,5.1,24,3.57,29.1-.91,3.05-2.02,6.04-3.32,8.94,0,0-9.44,1-12-2.81-2.56-3.81-1.53-23-12.51-27.57-10.98-4.57-31.91-2-37,2.55s-10.47,12.26-10.47,12.26Z"/>
  <path class="st3" d="M311.72,221.88s2.3,14.55,2.3,22.46,6.38,18.9,9.7,22c3.32,3.1,14.3,13.53,20.68,14.81s13.53-2.3,18.38-8.43,14.3-18.38,14.3-18.38c2.11.24,4.23-.27,6-1.44,1.77-1.17,3.08-2.91,3.7-4.94,2.56-7.41,1.28-15.83-3.06-16.85s-7.4,4.08-7.4,4.08c0,0-3.58-13.78-8.17-20.68l-6.64-10,8.47-10.59c.09-.12.16-.25.2-.39.04-.14.05-.29.03-.44-.02-.15-.07-.29-.15-.41-.08-.13-.18-.23-.3-.32-.23-.16-.51-.23-.79-.19-.28.04-.53.18-.7.4l-8.29,10.67s-16.34-2.81-30.64,4.34c-14.3,7.15-17.62,14.3-17.62,14.3Z"/>
  <path class="st6" d="M364.18,236.25l-2.3,3.07"/>
  <path class="st6" d="M332.66,253.79s.51,1.53,3.83,2.3c1.55.36,3.17.26,4.66-.28,1.49-.54,2.8-1.51,3.76-2.78"/>
  <path class="st6" d="M336.5,262c3.15.71,6.43.59,9.51-.35s5.88-2.67,8.1-5.01c0,0-2.29,9.7-6.89,11.49s-4.85-3.07-4.85-3.07l-5.87-3.06Z"/>
  <path class="st4" d="M345.68,242.56c2.12-1.99,4.69-3.43,7.49-4.19,2.81-.76,5.75-.81,8.59-.15"/>
  <path class="st4" d="M329.08,242.05s-5.61-5.62-11.49-2.56"/>
  <path class="st6" d="M315.81,238.22l2.8,2.81"/>
  <path class="st6" d="M343.89,228.77s7.61-8.77,18.61-.51"/>
  <path class="st6" d="M328.57,228.51s-6.89-5.36-13.79.77"/>
  <path class="st0" d="M351.69,241.19c.01.25-.06.5-.19.71-.13.21-.33.38-.55.48-.23.1-.48.13-.73.08-.24-.05-.47-.17-.65-.34-.18-.18-.3-.4-.34-.65-.05-.24-.02-.5.08-.73.1-.23.27-.42.48-.55s.46-.2.71-.19c.31.01.61.14.83.36.22.22.35.52.36.83Z"/>
  <path class="st0" d="M322.5,240.12c0,.25-.07.49-.2.69s-.33.37-.55.46c-.23.1-.48.12-.72.08-.24-.05-.46-.16-.64-.34-.17-.17-.29-.39-.34-.63-.05-.24-.02-.49.07-.72.09-.23.25-.42.46-.56.2-.14.44-.21.69-.21.33,0,.64.13.87.36.23.23.36.54.37.87Z"/>
  <path class="st0" d="M382.83,215.22s.88,11.49-1.24,20.15l3.36,1.06s2.65-13.26,1.41-20.68l-3.53-.53Z"/>
  <path class="st0" d="M359.99,181.61c3.7,1.85,6.99,4.4,9.69,7.53,2.7,3.12,4.76,6.76,6.05,10.68,4.06,13.08,3.53,17.15,6,18.56,2.47,1.41,7.25,2.3,7.42-.88.17-3.18-.93-17.37-8-26.17-5.3-6.7-16.74-9.54-21.16-9.72Z"/>
  <path class="st0" d="M384.23,232.84c-5.09-1.56-10.68,2-12.5,7.91-1.68,5.47.46,11.05,4.8,13.11-3.19,8.1-7.92,15.49-13.95,21.77-1.17-.14-2.36.15-3.32.84-1.82,1.23-2.62,3.24-1.77,4.5.85,1.26,3,1.28,4.83.06,1.83-1.22,2.48-3,1.9-4.22,6.16-6.43,10.99-14.01,14.22-22.31,4.86,1,10-2.48,11.71-8.11,1.82-5.92-.83-11.99-5.92-13.55Z"/>
  <path class="st0" d="M388.55,244.4c-.86,3.78-4.27,6.24-7.62,5.48-3.35-.76-5.37-4.45-4.51-8.23.86-3.78,4.27-6.24,7.62-5.49,3.35.75,5.37,4.45,4.51,8.24Z"/>
  <path class="st3" d="M387.57,306.77s-4.95-12.37-6-14.67c-1.05-2.3,7.6-15.91,9-17.86,1.4-1.95,4.06-6,4.06-6.89s-10.07-10.79-12.2-12.38-5.65,2-5.65,2c0,0-9.19,12.2-9.19,13.61s4.41,5.83,4.41,5.83c0,0-6.89,9.9-6,13.79.89,3.89,4.42,7.25,4.42,7.25l4.95,19.09,12.2-9.77Z"/>
  <path class="st6" d="M372.01,276.36s6-4.77,5.48-6.18c-.21-.42-.54-.76-.95-.98-.41-.22-.88-.31-1.34-.26"/>
  <path class="st6" d="M376.26,258.51c.53,0,16.08,10.25,15.73,12-.31,1.29-.78,2.54-1.41,3.71"/>
  <path class="st6" d="M378.03,256.92s14.67,9.19,15,10.78c.07.52,0,1.05-.18,1.55-.18.49-.49.93-.88,1.28"/>
  <path class="st6" d="M379.62,255.33s15.38,10.43,15,12c-.42,1.29-1.08,2.48-1.94,3.53"/>
  <path class="st2" d="M389.69,305.36l-23.69,13.64s30.76,73.18,36.42,83.08c5.66,9.9,20.86,12.2,28.82,9.55,7.96-2.65,11.84-18.56,9.19-25.28s-21.75-36.09-30.93-50.77c-9.18-14.68-19.81-30.22-19.81-30.22Z"/>
  <path class="st1" d="M287.85,238.86v-32.19c0-1.24-.49-2.43-1.37-3.31-.88-.88-2.07-1.37-3.31-1.37h-78.51c-1.24,0-2.43.49-3.31,1.37-.88.88-1.37,2.07-1.37,3.31v32.19c0,1.24.49,2.43,1.37,3.31.88.88,2.07,1.37,3.31,1.37h67.42l15.35,14.77-3.07-14.94c1-.26,1.88-.85,2.51-1.66.63-.81.98-1.82.98-2.85Z"/>
  <path class="st8" d="M228.41,225.64c1.94,0,3.51-1.57,3.51-3.51s-1.57-3.51-3.51-3.51-3.51,1.57-3.51,3.51,1.57,3.51,3.51,3.51Z"/>
  <path class="st8" d="M243.91,225.64c1.94,0,3.51-1.57,3.51-3.51s-1.57-3.51-3.51-3.51-3.51,1.57-3.51,3.51,1.57,3.51,3.51,3.51Z"/>
  <path class="st8" d="M259.42,225.64c1.94,0,3.51-1.57,3.51-3.51s-1.57-3.51-3.51-3.51-3.51,1.57-3.51,3.51,1.57,3.51,3.51,3.51Z"/>
  <path class="st8" d="M212.73,238.12v-7.2l-7.57-1.68c-.41-1.46-.99-2.87-1.73-4.2l4.15-6.54-5.08-5.09-6.54,4.16c-1.32-.74-2.73-1.33-4.19-1.73l-1.69-7.57h-7.2l-1.68,7.57c-1.47.4-2.88.98-4.2,1.73l-6.5-4.16-5.09,5.09,4.09,6.5c-.74,1.32-1.33,2.74-1.73,4.2l-7.57,1.68v7.2l7.57,1.69c.4,1.47.98,2.9,1.73,4.23l-4.16,6.54,5.09,5.09,6.54-4.16c1.33.74,2.74,1.33,4.2,1.74l1.68,7.56h7.2l1.69-7.56c1.46-.41,2.87-1,4.19-1.74l6.54,4.16,5.09-5.09-4.13-6.54c.74-1.33,1.32-2.73,1.73-4.19l7.57-1.69ZM186.5,243.82c-1.84,0-3.64-.55-5.17-1.57-1.53-1.02-2.72-2.48-3.43-4.17-.7-1.7-.89-3.57-.53-5.37.36-1.8,1.24-3.46,2.54-4.76,1.3-1.3,2.96-2.19,4.76-2.54,1.8-.36,3.67-.18,5.37.53,1.7.7,3.15,1.9,4.17,3.43,1.02,1.53,1.57,3.33,1.57,5.17,0,1.22-.24,2.43-.71,3.56-.47,1.13-1.15,2.15-2.02,3.02-.86.86-1.89,1.55-3.02,2.02-1.13.47-2.34.71-3.56.71Z"/>
  <path class="st5" d="M149.27,427.24h165.4v-6.67h-165.4v6.67Z"/>
  <path class="st3" d="M123.87,427.24h144.16v-6.67H123.87v6.67Z"/>
  <path class="st5" d="M121.08,408.7h137.92l-14.87-105.29H106.21l14.87,105.29Z"/>
  <path class="st8" d="M115.37,408.7h137.92l-14.87-105.29H100.5l14.87,105.29Z"/>
  <path class="st3" d="M157.63,359.76l-13.84,67.48h35.59l13.84-67.48h-35.59ZM181.77,379.76c-.06.28-.21.54-.44.72-.22.18-.5.28-.79.28l-20.16-.2c-.19,0-.37-.05-.54-.13-.17-.08-.32-.2-.43-.35-.12-.15-.2-.32-.24-.51-.04-.18-.04-.38,0-.56l1.82-7.57c.06-.28.21-.54.44-.72.22-.18.5-.28.79-.28l20.17.19c.19,0,.37.05.54.14.17.08.31.2.43.35.12.15.2.32.24.5.04.18.04.37,0,.56l-1.82,7.58Z"/>
  <path class="st2" d="M19.75,432.08h465.5v-4.84H19.75v4.84Z"/>
  <path class="st6" d="M353.36,107.53l-2.94-8.53h-29.53l2.67,50h68.66v-41.47h-38.86Z"/>
  <path class="st6" d="M392.22,149l5.86-45.81h-46.5"/>
  <path class="st6" d="M193.58,132.3c4.36-18.58-7.17-37.17-25.75-41.53-18.58-4.36-37.17,7.17-41.53,25.75-4.36,18.58,7.17,37.17,25.75,41.53,18.58,4.36,37.17-7.17,41.53-25.75Z"/>
  <path class="st6" d="M187.03,130.91c3.58-14.95-5.65-29.98-20.6-33.55-14.95-3.58-29.98,5.65-33.55,20.6-3.58,14.95,5.65,29.97,20.6,33.55,14.95,3.58,29.97-5.65,33.55-20.6Z"/>
  <path class="st6" d="M163.64,124.42c0,.73-.22,1.44-.62,2.05-.41.61-.98,1.08-1.66,1.36s-1.42.35-2.13.21c-.72-.14-1.37-.49-1.89-1.01-.52-.52-.87-1.17-1.01-1.89-.14-.72-.07-1.46.21-2.13.28-.67.75-1.25,1.36-1.66.61-.41,1.32-.62,2.05-.62.98,0,1.92.39,2.61,1.08.69.69,1.08,1.63,1.08,2.61Z"/>
  <path class="st6" d="M159.84,98.67v6.89"/>
  <path class="st6" d="M159.84,143.42v6.88"/>
  <path class="st6" d="M141.59,106.23l4.86,4.87"/>
  <path class="st6" d="M173.23,137.87l4.86,4.87"/>
  <path class="st6" d="M134.03,124.49h6.88"/>
  <path class="st6" d="M178.77,124.49h6.88"/>
  <path class="st6" d="M141.59,142.74l4.86-4.87"/>
  <path class="st6" d="M173.23,111.1l4.86-4.87"/>
  <path class="st6" d="M156.26,124.42h-10.19"/>
  <path class="st6" d="M159.95,120.73v-13.45"/>
  <path class="st6" d="M295.58,99h-79.33v50.67h79.33v-50.67Z"/>
  <path class="st6" d="M216.25,99l39.66,25.33,39.67-25.33"/>
  <path class="st6" d="M216.25,149.67l30-27.34"/>
  <path class="st6" d="M295.2,149.67l-30-27.34"/>
  <rect class="st7" x="635.62" y="-75.15" width="61.54" height="67.08"/>
  <rect class="st7" x="635.62" y="5.46" width="61.54" height="67.08"/>
  <rect class="st7" x="635.62" y="91.62" width="61.54" height="67.08"/>
</svg>