<?xml version="1.0" encoding="UTF-8"?>
<svg id="Layer_1" xmlns="http://www.w3.org/2000/svg" version="1.1" viewBox="0 0 547 547">
  <!-- Generator: Adobe Illustrator 30.0.0, SVG Export Plug-In . SVG Version: 2.1.1 Build 123)  -->
  <defs>
    <style>
      .st0 {
        fill: #4a008c;
      }

      .st1 {
        fill: #263238;
      }

      .st2, .st3, .st4 {
        fill: #fff;
      }

      .st5 {
        fill: #f0f0f0;
      }

      .st6 {
        fill: #b65b52;
      }

      .st7, .st3 {
        opacity: .4;
      }

      .st8 {
        fill: #b57aff;
      }

      .st9 {
        opacity: .1;
      }

      .st9, .st3, .st4, .st10, .st11, .st12 {
        isolation: isolate;
      }

      .st9, .st13 {
        fill: #407bff;
      }

      .st14 {
        fill: #36016d;
      }

      .st15 {
        fill: #a02724;
      }

      .st4 {
        opacity: .7;
      }

      .st16 {
        fill: #6b1aff;
      }

      .st10 {
        opacity: .3;
      }

      .st11 {
        opacity: .2;
      }

      .st17 {
        fill: #b55b52;
      }

      .st18 {
        stroke: #263238;
        stroke-miterlimit: 10;
      }

      .st18, .st19 {
        fill: #ebebeb;
      }

      .st20 {
        fill: #f5f5f5;
      }

      .st12 {
        opacity: .6;
      }

      .st21 {
        fill: #e6e6e6;
      }
    </style>
  </defs>
  <path class="st19" d="M547,418.35H0v.27h547v-.27Z"/>
  <path class="st19" d="M492.19,435.95h-36.23v.27h36.23v-.27Z"/>
  <path class="st19" d="M362.36,438.92h-9.51v.27h9.51v-.27Z"/>
  <path class="st19" d="M454.86,425.8h-20.99v.27h20.99v-.27Z"/>
  <path class="st19" d="M104.64,427.63h-47.25v.27h47.25v-.27Z"/>
  <path class="st19" d="M121.31,427.63h-6.93v.27h6.93v-.27Z"/>
  <path class="st19" d="M246.31,432.25h-102.49v.27h102.49v-.27Z"/>
  <path class="st18" d="M259.28,369.55H48.04c-1.65,0-3.24-.66-4.41-1.83-1.17-1.17-1.83-2.76-1.83-4.41V66.36c.01-1.65.68-3.22,1.85-4.38,1.17-1.16,2.75-1.81,4.39-1.81h211.24c1.66,0,3.25.66,4.42,1.83,1.17,1.17,1.83,2.76,1.83,4.42v296.89c0,1.66-.66,3.25-1.83,4.42-1.17,1.17-2.76,1.83-4.42,1.83ZM48.04,60.39c-1.58,0-3.1.63-4.22,1.75-1.12,1.12-1.75,2.64-1.75,4.22v296.94c0,1.58.63,3.1,1.75,4.22,1.12,1.12,2.63,1.75,4.22,1.75h211.24c1.58,0,3.1-.63,4.22-1.75,1.12-1.12,1.75-2.64,1.75-4.22V66.36c0-1.58-.63-3.1-1.75-4.22-1.12-1.12-2.64-1.75-4.22-1.75H48.04Z"/>
  <path class="st18" d="M495.92,369.55h-211.25c-1.66,0-3.24-.66-4.41-1.83-1.17-1.17-1.83-2.76-1.83-4.41V66.36c.02-1.65.68-3.22,1.85-4.38,1.17-1.16,2.75-1.81,4.39-1.81h211.25c1.64,0,3.22.66,4.38,1.82,1.17,1.16,1.83,2.73,1.84,4.37v296.94c0,1.65-.65,3.24-1.82,4.41-1.17,1.17-2.75,1.83-4.4,1.84ZM284.67,60.39c-1.58,0-3.1.63-4.22,1.75-1.12,1.12-1.75,2.64-1.75,4.22v296.94c0,1.58.63,3.1,1.75,4.22,1.12,1.12,2.64,1.75,4.22,1.75h211.25c1.58,0,3.1-.63,4.22-1.75s1.75-2.64,1.75-4.22V66.36c0-1.58-.63-3.1-1.75-4.22-1.12-1.12-2.64-1.75-4.22-1.75h-211.25Z"/>
  <path class="st21" d="M195.98,265.5h253.47V96.95h-253.47v168.55Z"/>
  <path class="st20" d="M192.05,265.5h253.47V96.95h-253.47v168.55Z"/>
  <path class="st2" d="M438.48,257.58V104.85h-239.39v152.73h239.39Z"/>
  <path class="st21" d="M202.06,257.59V104.86h-2.97v152.73h2.97Z"/>
  <path class="st20" d="M194.96,220.73h247.65v-10.62h-247.65v10.62Z"/>
  <g class="st7">
    <path class="st21" d="M208.11,88.62h-23.92v142.59h23.92V88.62Z"/>
    <path class="st20" d="M208.12,219.76h11.86V88.62h-11.86v131.14Z"/>
    <path class="st21" d="M243.91,88.62h-23.93v142.59h23.93V88.62Z"/>
    <path class="st20" d="M243.92,219.76h11.86V88.62h-11.86v131.14Z"/>
    <path class="st21" d="M279.7,88.62h-23.93v142.59h23.93V88.62Z"/>
    <path class="st20" d="M279.71,219.76h11.86V88.62h-11.86v131.14Z"/>
    <path class="st21" d="M315.5,88.62h-23.93v142.59h23.93V88.62Z"/>
    <path class="st20" d="M315.51,219.76h11.86V88.62h-11.86v131.14Z"/>
    <path class="st21" d="M351.3,88.62h-23.93v142.59h23.93V88.62Z"/>
    <path class="st20" d="M351.29,219.76h11.86V88.62h-11.86v131.14Z"/>
    <path class="st21" d="M387.08,88.62h-23.93v142.59h23.93V88.62Z"/>
    <path class="st20" d="M387.09,219.76h11.86V88.62h-11.86v131.14Z"/>
    <path class="st21" d="M422.88,88.62h-23.93v142.59h23.93V88.62Z"/>
    <path class="st20" d="M422.89,219.76h11.86V88.62h-11.86v131.14Z"/>
    <path class="st21" d="M458.67,88.62h-23.93v142.59h23.93V88.62Z"/>
  </g>
  <path class="st19" d="M90.57,418.35h56.11v-115.31h-56.11v115.31Z"/>
  <path class="st20" d="M101.23,418.35h-10.66v-23.49h21.84l-11.18,23.49Z"/>
  <path class="st19" d="M410.72,418.35h56.11v-115.31h-56.11v115.31Z"/>
  <path class="st20" d="M90.57,403.94h329.45v-100.9H90.57v100.9Z"/>
  <path class="st21" d="M409.07,375.47h-97.66c-.24,0-.47-.09-.63-.26-.17-.17-.26-.4-.26-.63v-63.88c0-.24.09-.47.26-.63.17-.17.4-.26.63-.26h18.03c.19,0,.38.06.54.17,2.68,1.96,5.65,3.48,8.81,4.52,3.8,1.26,7.79,1.89,11.79,1.88h19.32c7.39.13,14.63-2.1,20.67-6.37.15-.12.33-.18.52-.17h18.04c.24,0,.47.09.63.26s.26.4.26.64v63.85c0,.12-.02.24-.07.36-.05.11-.12.21-.21.3-.09.08-.19.15-.31.19-.12.04-.24.06-.36.05ZM312.3,373.68h95.87v-62.05h-16.85c-6.28,4.38-13.78,6.67-21.43,6.56h-19.32c-4.2.01-8.38-.66-12.36-1.98-3.24-1.06-6.29-2.61-9.06-4.6h-16.85v62.06Z"/>
  <path class="st21" d="M304.13,375.47h-97.67c-.24,0-.47-.09-.64-.26-.17-.17-.26-.4-.26-.63v-63.88c0-.24.1-.47.26-.63.17-.17.4-.26.64-.26h17.05c.19,0,.38.06.54.17,2.66,1.96,5.62,3.48,8.75,4.52,3.8,1.26,7.79,1.89,11.79,1.88h19.32c7.37.11,14.57-2.13,20.58-6.4.15-.11.34-.18.54-.17h19.1c.12,0,.24.02.35.07.11.04.21.11.29.19.08.08.15.18.19.29.04.11.07.23.07.35v63.85c0,.12-.02.24-.06.35-.04.11-.11.22-.19.3-.08.09-.18.16-.3.2s-.23.07-.35.07ZM207.37,373.68h95.87v-62.05h-17.85c-6.27,4.38-13.76,6.67-21.41,6.56h-19.32c-4.2.01-8.38-.66-12.36-1.98-3.24-1.05-6.3-2.6-9.07-4.6h-15.86v62.06Z"/>
  <path class="st21" d="M199.18,375.47h-97.66c-.24,0-.47-.09-.63-.26-.17-.17-.26-.4-.26-.63v-63.88c0-.12.02-.24.07-.35.04-.11.11-.21.19-.29.08-.08.18-.15.29-.19.11-.04.23-.07.35-.07h17.06c.19,0,.37.06.53.17,2.66,1.95,5.62,3.48,8.75,4.52,3.81,1.26,7.79,1.89,11.8,1.88h19.32c7.37.11,14.59-2.13,20.6-6.4.15-.12.34-.18.54-.17h19.01c.24,0,.47.09.63.26.17.17.26.4.26.63v63.85c0,.23-.07.46-.23.64-.16.17-.38.28-.61.29ZM102.42,373.68h95.87v-62.05h-17.78c-6.28,4.38-13.77,6.67-21.42,6.56h-19.37c-4.2.01-8.38-.65-12.36-1.98-3.24-1.05-6.3-2.6-9.07-4.6h-15.86v62.06Z"/>
  <path class="st20" d="M409.36,418.35h10.66v-23.49h-21.83l11.17,23.49Z"/>
  <path class="st21" d="M157.47,283.72h-8.85c.07-6.13,0-21.68-.62-57.31-1.09-64.55-3.14-68.53-3.14-68.53l10.49,31.88c2.49,7.5,3.94,15.3,4.31,23.19,1.16,24.86-3.22,44.7-2.19,70.77Z"/>
  <path class="st21" d="M164.2,180.14c11.8-17.87,35.37-27.19,59.46-35.96,9.45-3.45-17.09,39.3-36.39,58.68-14.99,15.05-29.54,14.71-33.84,29.54-.83-17.22.59-36.87,10.76-52.26Z"/>
  <path class="st21" d="M150.68,168.67c-9.25-20.9-32.63-47.99-58.91-67.08-10.32-7.49,15.14,56.89,33.09,83.21,13.98,20.52,27.02,33.02,29.06,47.65,8.82-18.31,6.01-42.9-3.24-63.78Z"/>
  <path class="st5" d="M151.55,303.04c5,0,9.82-1.92,13.45-5.35,3.64-3.44,5.82-8.13,6.11-13.13l1.74-17.71h-42.6l1.73,17.71c.29,5,2.48,9.69,6.11,13.13,3.64,3.43,8.45,5.35,13.46,5.35Z"/>
  <path class="st5" d="M127.49,266.95h48.11l1.38-6.29h-50.87l1.38,6.29Z"/>
  <path class="st5" d="M129.87,277.73h43.37l1.25-6.29h-45.86l1.25,6.29Z"/>
  <path class="st20" d="M273.5,467.75c117.15,0,212.12-5.55,212.12-12.39s-94.97-12.38-212.12-12.38-212.12,5.55-212.12,12.38,94.97,12.39,212.12,12.39Z"/>
  <path class="st0" d="M443.38,348.25H103.61v38.46h339.76v-38.46Z"/>
  <path class="st10" d="M443.39,348.25h-72.88v38.46h72.88v-38.46Z"/>
  <path class="st0" d="M141.13,386.72h-37.51v68.65h37.51v-68.65Z"/>
  <path class="st10" d="M103.62,386.72v3.84l26.56,8.02v56.79h10.94v-68.65h-37.5Z"/>
  <path class="st13" d="M443.39,386.72h-37.51v68.65h37.51v-68.65Z"/>
  <path class="st14" d="M443.39,386.72h-37.51v68.65h37.51v-68.65Z"/>
  <path class="st10" d="M405.87,386.72v3.84l26.57,8.02v56.79h10.94v-68.65h-37.51Z"/>
  <path class="st0" d="M370.51,386.72h-37.51v68.65h37.51v-68.65Z"/>
  <path class="st10" d="M332.99,386.72v3.84l26.57,8.02v56.79h10.94v-68.65h-37.51Z"/>
  <path class="st13" d="M214.01,386.72h-37.51v68.65h37.51v-68.65Z"/>
  <path class="st14" d="M214.01,386.72h-37.51v68.65h37.51v-68.65Z"/>
  <path class="st10" d="M176.49,386.72v3.84l26.57,8.02v56.79h10.94v-68.65h-37.51Z"/>
  <path class="st1" d="M396.55,340.69h-207.73c-.65,0-1.29-.12-1.88-.38-.59-.25-1.13-.63-1.57-1.1-.44-.47-.78-1.03-1-1.64-.21-.61-.3-1.26-.25-1.9l8.55-135.75c.11-1.35.72-2.62,1.7-3.55.99-.93,2.29-1.46,3.64-1.49h207.72c.65,0,1.29.12,1.88.38.6.26,1.13.63,1.57,1.1.44.47.78,1.03,1,1.64.21.61.3,1.26.25,1.9l-8.55,135.75c-.11,1.35-.71,2.61-1.7,3.54-.99.93-2.28,1.46-3.64,1.49Z"/>
  <path class="st12" d="M396.55,340.69h-207.73c-.65,0-1.29-.12-1.88-.38-.59-.25-1.13-.63-1.57-1.1-.44-.47-.78-1.03-1-1.64-.21-.61-.3-1.26-.25-1.9l8.55-135.75c.11-1.35.72-2.62,1.7-3.55.99-.93,2.29-1.46,3.64-1.49h207.72c.65,0,1.29.12,1.88.38.6.26,1.13.63,1.57,1.1.44.47.78,1.03,1,1.64.21.61.3,1.26.25,1.9l-8.55,135.75c-.11,1.35-.71,2.61-1.7,3.54-.99.93-2.28,1.46-3.64,1.49Z"/>
  <path class="st1" d="M395,340.69h-207.72c-.65,0-1.29-.12-1.89-.38-.6-.25-1.13-.63-1.58-1.1-.44-.47-.78-1.03-1-1.65-.21-.61-.3-1.26-.25-1.91l8.56-135.75c.11-1.35.72-2.62,1.7-3.55.99-.93,2.29-1.46,3.65-1.49h207.72c.65,0,1.29.12,1.89.38.6.25,1.13.63,1.57,1.1.44.47.78,1.03,1,1.65.21.61.3,1.26.25,1.91l-8.56,135.75c-.11,1.35-.71,2.61-1.7,3.54-.99.93-2.28,1.46-3.64,1.49Z"/>
  <path class="st1" d="M394.74,342.42h-247.17c-1.14-.01-2.26.3-3.22.9-.97.6-1.75,1.46-2.25,2.48-.13.27-.18.56-.17.85.02.29.11.58.27.83.16.25.38.45.64.59s.55.21.84.21h254.88c.29,0,.58-.07.84-.21s.48-.34.64-.59c.16-.25.25-.53.27-.83.02-.29-.04-.59-.16-.85-.49-1.02-1.26-1.87-2.22-2.47-.96-.6-2.06-.91-3.19-.91Z"/>
  <path class="st12" d="M394.74,342.42h-35.15c-1.13,0-2.24.31-3.2.91-.96.6-1.73,1.46-2.22,2.47-.13.26-.18.56-.17.85.02.29.11.58.27.82.16.25.38.45.63.59.26.14.55.21.84.21h42.82c.29,0,.58-.07.84-.21.26-.14.48-.34.64-.59.16-.25.25-.53.27-.83.02-.29-.04-.59-.16-.85-.49-1.02-1.26-1.87-2.22-2.47-.96-.6-2.07-.91-3.19-.91Z"/>
  <path class="st16" d="M372.95,346.69h-9.08c-.21,0-.41-.09-.56-.24-.15-.15-.23-.35-.23-.56s.08-.41.23-.56c.15-.15.35-.24.56-.24h9.08c.1,0,.21.02.31.06.1.04.18.1.26.17.07.07.13.16.17.26.04.1.06.2.06.31s-.02.21-.06.31c-.04.1-.1.18-.17.26-.07.07-.16.13-.26.17-.1.04-.2.06-.31.06Z"/>
  <path class="st4" d="M256.18,346.69h-9.07c-.21,0-.42-.08-.57-.23-.15-.15-.23-.35-.23-.56,0-.11.02-.21.06-.31.04-.1.1-.19.17-.26.07-.07.16-.13.26-.17.1-.04.2-.06.31-.06h9.07c.1,0,.21.02.31.06.1.04.18.1.26.17.07.07.13.16.17.26.04.1.06.2.06.31,0,.21-.08.41-.23.56-.15.15-.35.23-.57.23Z"/>
  <path class="st16" d="M382.34,345.09h-5.94c-.36,0-.66.29-.66.66v.28c0,.36.29.66.66.66h5.94c.36,0,.66-.29.66-.66v-.28c0-.36-.29-.66-.66-.66Z"/>
  <path class="st2" d="M187.25,330.76l7.94-125.95c.04-.53.28-1.02.66-1.38.38-.36.89-.56,1.42-.57h205.11c.25,0,.5.04.73.14.23.1.44.24.61.43.17.18.3.4.39.64.08.24.12.49.1.74l-7.93,125.95c-.04.53-.28,1.02-.67,1.38-.39.36-.89.56-1.42.57h-205.1c-.25,0-.5-.05-.73-.15-.23-.1-.44-.24-.61-.43-.17-.18-.31-.4-.39-.64-.09-.24-.12-.49-.1-.74Z"/>
  <path class="st9" d="M303.94,198.98l-68.32,129.86h-50.4c-.25,0-.5-.05-.74-.14-.23-.1-.44-.24-.61-.43-.17-.18-.31-.4-.39-.64-.08-.24-.12-.49-.1-.74l7.94-125.94c.04-.53.28-1.02.66-1.38.38-.36.89-.57,1.42-.58h110.54Z"/>
  <path class="st9" d="M363.77,198.98l-68.32,129.86h-15.93l68.32-129.86h15.93Z"/>
  <path class="st9" d="M400.34,200.93l-7.94,125.94c-.04.53-.27,1.02-.66,1.38-.39.36-.89.57-1.42.57h-77.67l68.32-129.86h17.5c.25,0,.51.04.74.14.24.1.45.24.62.43.18.18.31.4.4.64.09.24.12.5.1.75Z"/>
  <path class="st3" d="M301.54,199.11c-.03.4-.21.77-.5,1.04-.29.27-.67.43-1.07.44-.19,0-.38-.04-.55-.11-.17-.08-.33-.19-.46-.32-.13-.14-.23-.3-.29-.48-.06-.18-.09-.37-.07-.56.03-.4.2-.77.49-1.04s.67-.43,1.07-.43c.19,0,.38.04.55.11.18.07.33.19.46.32.13.14.23.3.29.48.06.18.09.37.07.56Z"/>
  <path class="st1" d="M267.65,168.9c-5.98,6.85-9.44,27.84-5.01,38.17,4.43,10.33-46.98,20.67-4.56,37.45,42.41,16.78,76.34-2.68,64.07-20.06-12.27-17.38,1.32-46.33-12.89-53.61-12.84-6.63-29.61-15.68-41.6-1.95Z"/>
  <path class="st6" d="M254.97,253.44c-2.24,7.66-4.63,15.32-7.1,22.97s-5.04,15.23-7.77,22.83l-1.04,2.87-.53,1.43-.16.43-.26.65c-.16.42-.41.86-.63,1.29-1.07,1.95-2.67,3.57-4.61,4.66-1.76.96-3.73,1.48-5.73,1.51-2.81.01-5.6-.53-8.19-1.61-2.13-.86-4.18-1.88-6.16-3.05-7.17-4.41-13.75-9.73-19.56-15.82l4.71-5.56c1.59,1.02,3.28,2.1,4.92,3.12,1.64,1.02,3.36,2,5.02,2.98,3.26,1.91,6.62,3.63,10.08,5.15,1.57.69,3.2,1.27,4.86,1.72,1.15.38,2.36.52,3.57.41.31,0,.25-.17,0-.08-.25.1-.53.38-.54.35-.01-.03,0,0,0-.07,0-.02,0-.04,0-.07l.09-.27.42-1.41.84-2.84,6.69-22.97c2.27-7.66,4.62-15.32,7.02-22.97l14.07,4.35Z"/>
  <path class="st17" d="M197.6,285.86l-12.71-4.7,5.04,13.43s8.97,1.29,12.45-3.42l-2.83-3.8c-.49-.68-1.17-1.2-1.95-1.51Z"/>
  <path class="st17" d="M173.67,285.06l4.84,11.02,11.48-1.51-5.05-13.43-11.26,3.93Z"/>
  <path class="st13" d="M245.69,233.62c-5.82,1.48-9.85,25.4-9.85,25.4l16.03,10.94s15.32-24.13,10.89-30.52c-4.7-6.71-8.59-7.97-17.07-5.82Z"/>
  <path class="st8" d="M245.69,233.62c-5.82,1.48-9.85,25.4-9.85,25.4l16.03,10.94s15.32-24.13,10.89-30.52c-4.7-6.71-8.59-7.97-17.07-5.82Z"/>
  <path class="st11" d="M245.17,242.32l12.44,2.88,1.19,12.18c-2.11,4.3-4.43,8.49-6.97,12.55l-9.72-6.56c.43-5.63,1.48-17.21,3.06-21.04Z"/>
  <path class="st13" d="M245.69,233.62s-6.73,2.36,6.74,85.13h57.28c-.96-23.31-.98-37.7,10.15-85.54-8.02-1.66-16.15-2.73-24.32-3.21-9.64-.47-17.5-.78-26.01,0-11.17,1.02-23.84,3.61-23.84,3.61Z"/>
  <path class="st8" d="M245.69,233.62s-6.73,2.36,6.74,85.13h57.28c-.96-23.31-.98-37.7,10.15-85.54-8.02-1.66-16.15-2.73-24.32-3.21-9.64-.47-17.5-.78-26.01,0-11.17,1.02-23.84,3.61-23.84,3.61Z"/>
  <path class="st11" d="M306.39,255.43l7.4,6.3c-1.58,8.37-2.64,15.32-3.28,21.54-1.41-6.21-4.93-23.08-4.11-27.84Z"/>
  <path class="st17" d="M292.96,200.72c-1.64,8.37-3.28,23.71,2.58,29.3,0,0-5.47,12.54-19.97,12.54s-6.05-12.54-6.05-12.54c9.33-2.19,9.09-9.16,7.47-15.65l15.96-13.64Z"/>
  <path class="st0" d="M293.68,226.88c-1.38,2.79-5.82,9.17-18.23,11.44-.35.06-.7,0-.99-.2-2.32-1.62-3.76-5.04-2.75-9.01.07-.24.07-.5,0-.74-.07-.24-.21-.46-.4-.63-.19-.17-.42-.28-.67-.32-.25-.04-.51-.02-.74.08-.95.4-1.87.88-2.74,1.44-.19.13-.34.3-.45.5-.91,1.71-4.58,10.07,6.51,15.22.18.08.37.12.56.13,6.56.13,18.04-1.16,25.29-14.22.13-.24.19-.5.17-.77-.02-.27-.12-.52-.29-.74-.98-1.07-2.11-1.98-3.36-2.7-.16-.1-.33-.17-.52-.2s-.37-.02-.56.03c-.18.05-.35.14-.49.25-.15.12-.26.27-.35.43Z"/>
  <path class="st0" d="M296.73,261.32l-14.77-.43c-.15,0-.31-.03-.45-.09-.14-.06-.27-.15-.37-.27-.1-.11-.18-.25-.23-.4s-.06-.3-.05-.45l.14-1.83c.04-.31.2-.59.43-.79.24-.2.54-.31.85-.3l14.77.43c.16,0,.31.03.45.09.14.06.27.16.37.27.1.12.18.25.23.4.05.15.06.3.04.46l-.14,1.82c-.04.31-.2.59-.43.79-.24.2-.54.31-.85.3Z"/>
  <path class="st11" d="M286.45,206.29l-9.45,8.06c.4,1.51.68,3.06.81,4.62,3.55-.51,8.46-4.43,8.84-8.16.21-1.51.14-3.04-.2-4.52Z"/>
  <path class="st17" d="M303.99,184.89c-2.64,13.75-3.46,19.63-11.38,25.83-11.91,9.34-28.23,3.09-29.73-11.17-1.37-12.83,3.17-33.16,17.5-36.92,3.14-.84,6.44-.85,9.59-.06,3.15.8,6.04,2.39,8.41,4.62,2.36,2.23,4.12,5.02,5.1,8.12.98,3.1,1.16,6.39.51,9.58Z"/>
  <path class="st1" d="M296.17,174.71c-1.71,8.61-2.11,20.02,5.78,20.02s14.07-13.42,7.26-23.94c-6.8-10.51-12.05-1.16-13.04,3.92Z"/>
  <path class="st1" d="M309.8,175.77c0,9.37-11.79,4.74-17.01.7-5.22-4.04-5.47-3.6-15.14-3.61-9.67-.01-11.61-.68-14.46-5.3-2.86-4.62-2.59-7.66,3.84-6.68,6.43.97,1.03-5.59,5.82-9.23,4.79-3.64,10.47-2.72,17.02,5.59,6.55,8.31,19.93,2.31,19.93,18.53Z"/>
  <path class="st2" d="M306.34,197.12c1.24-4.23.02-8.32-2.72-9.12-2.74-.8-5.97,1.98-7.21,6.21-1.24,4.23-.02,8.31,2.72,9.12,2.74.8,5.97-1.97,7.21-6.21Z"/>
  <path class="st2" d="M284.44,207.71c-2.54,0-5.05-.52-7.38-1.52-.05-.02-.1-.05-.13-.09-.04-.04-.07-.08-.09-.13-.02-.05-.03-.1-.03-.16,0-.05.01-.11.03-.16.05-.1.13-.18.23-.22.1-.04.21-.04.32,0,2.2.94,4.56,1.44,6.96,1.45s4.76-.45,6.97-1.37c2.15-.88,4.1-2.18,5.74-3.82,1.64-1.64,2.93-3.6,3.8-5.75,3.28-9.4,6.63-21.13,2.76-28.44-.78-1.43-1.86-2.66-3.16-3.63-1.3-.97-2.8-1.64-4.39-1.98-.11-.03-.2-.1-.25-.19-.05-.09-.07-.21-.05-.31.03-.11.1-.2.19-.25.1-.05.21-.07.31-.04,1.7.37,3.3,1.09,4.69,2.13,1.39,1.04,2.54,2.36,3.38,3.89,4.03,7.56.67,19.52-2.71,29.09-.92,2.26-2.28,4.31-4,6.04-1.72,1.72-3.77,3.09-6.03,4.01-2.26.95-4.69,1.45-7.14,1.48Z"/>
  <path class="st0" d="M305.94,197.16c-.97,3.28-3.21,5.59-4.99,5.08-1.78-.51-2.44-3.64-1.47-6.97.97-3.33,3.21-5.6,4.99-5.08,1.78.52,2.44,3.64,1.46,6.97Z"/>
  <path class="st2" d="M278.19,204.38l-4.29-.83c-.75-.14-1.48.35-1.63,1.1l-.05.25c-.15.75.35,1.48,1.1,1.63l4.29.83c.75.14,1.48-.35,1.63-1.1l.05-.25c.15-.75-.35-1.48-1.1-1.63Z"/>
  <path class="st15" d="M272.59,186.03s-2.54,4.61-4.94,6.67c1.3,1.59,3.93,1.28,3.93,1.28l1.02-7.95Z"/>
  <path class="st1" d="M275.01,199.87h.1c2.48.2,4.94-.55,6.89-2.1.04-.04.06-.1.06-.15s-.02-.11-.06-.15c-.02-.02-.04-.03-.07-.05-.03-.01-.05-.02-.08-.02s-.06,0-.08.02c-.03.01-.05.03-.07.05-1.86,1.46-4.2,2.18-6.56,2-.03,0-.06,0-.08,0-.03,0-.05.02-.08.04-.02.02-.04.04-.05.07-.01.02-.02.05-.02.08,0,.04,0,.09.02.13.02.04.05.07.09.09Z"/>
  <path class="st1" d="M287.52,180.62c.06.04.13.05.2.05s.14-.02.2-.05c.09-.06.16-.16.18-.27.02-.11,0-.23-.05-.32-.52-.88-1.25-1.62-2.11-2.15-.87-.54-1.85-.87-2.86-.95-.11,0-.22.04-.3.12-.08.08-.13.19-.13.3,0,.11.04.22.12.3.08.08.18.13.29.13.88.08,1.72.37,2.46.84.74.47,1.37,1.11,1.81,1.87.05.06.11.1.19.13Z"/>
  <path class="st1" d="M281.26,186.22c-.19,1.09-.94,1.94-1.68,1.82-.74-.12-1.17-1.09-.98-2.27.19-1.18.95-1.94,1.68-1.82.73.12,1.18,1.15.98,2.27Z"/>
  <path class="st1" d="M268.5,184.05c-.19,1.09-.94,1.94-1.69,1.82-.74-.12-1.17-1.15-.98-2.28.18-1.13.95-1.95,1.68-1.82.73.13,1.18,1.14.99,2.28Z"/>
  <path class="st1" d="M267.83,181.9l-2.58-1.25s1.03,2.35,2.58,1.25Z"/>
  <path class="st1" d="M280.59,184.07l-2.58-1.24s1.03,2.35,2.58,1.24Z"/>
  <path class="st1" d="M264.17,176.43c.07.04.14.06.22.06s.15-.02.22-.06c.68-.57,1.48-.96,2.34-1.15.86-.19,1.75-.17,2.61.06.11.04.23.03.33-.02s.18-.14.22-.24c.04-.11.03-.23-.02-.33-.05-.1-.14-.18-.24-.22-.98-.28-2.02-.32-3.02-.11-1,.21-1.93.65-2.73,1.29-.05.03-.08.07-.11.12-.03.05-.05.1-.06.16,0,.06,0,.11.01.17.02.05.04.1.08.15.04.06.09.1.15.13Z"/>
  <path class="st8" d="M250.25,332.71s-.15-7.83,2.19-13.95h57.27s5.15,8.31,6.49,13.95h-65.95Z"/>
  <path class="st13" d="M310.58,315.4l.45,5.12c.21.4-.26.81-.93.81h-57.98c-.51,0-.94-.25-.97-.58l-.52-5.13c0-.35.42-.66.99-.66h57.98c.19-.02.38,0,.56.09.18.08.33.2.44.35Z"/>
  <path class="st0" d="M310.58,315.4l.45,5.12c.21.4-.26.81-.93.81h-57.98c-.51,0-.94-.25-.97-.58l-.52-5.13c0-.35.42-.66.99-.66h57.98c.19-.02.38,0,.56.09.18.08.33.2.44.35Z"/>
  <path class="st0" d="M302.78,321.88h1.55c.32,0,.55-.15.53-.35l-.72-6.66c0-.2-.3-.35-.6-.35h-1.59c-.32,0-.55.15-.53.35l.72,6.66c.06.2.33.35.64.35Z"/>
  <path class="st0" d="M256.51,321.88h1.55c.31,0,.55-.15.53-.35l-.73-6.66c0-.2-.28-.35-.6-.35h-1.55c-.31,0-.55.15-.52.35l.73,6.66c.02.2.3.35.6.35Z"/>
  <path class="st0" d="M279.65,321.88h1.51c.31,0,.55-.15.52-.35l-.73-6.66c0-.2-.29-.35-.6-.35h-1.55c-.31,0-.55.15-.52.35l.73,6.66c.07.2.33.35.64.35Z"/>
  <path class="st6" d="M324.77,249.43c2.52,8.17,4.93,16.38,7.25,24.64l3.49,12.32,1.74,6.13.44,1.51.22.76.05.17-.17-.27c-.28-.4-.62-.74-1.01-1.03-.86-.62-1.87-.98-2.93-1.04-.8-.04-1.6.12-2.32.46-.79.43-.71.52-.65.45.18-.16.35-.34.5-.54.52-.64.99-1.32,1.42-2.02.96-1.57,1.91-3.35,2.81-5.16,1.86-3.63,3.53-7.48,5.23-11.35,1.7-3.87,3.28-7.79,4.92-11.74s3.21-7.92,4.82-11.84l6.99,2.08c-1.82,8.53-3.94,16.91-6.56,25.26-1.29,4.19-2.72,8.34-4.38,12.54-.85,2.1-1.76,4.2-2.89,6.38-.6,1.18-1.27,2.32-2.01,3.41-.46.69-.97,1.34-1.53,1.95-.89,1.01-1.97,1.83-3.17,2.42-1.2.58-2.53.86-3.87.81-1.59-.09-3.11-.65-4.38-1.61-.81-.61-1.51-1.35-2.07-2.19-.36-.54-.67-1.11-.93-1.7-.1-.24-.21-.49-.28-.71l-.21-.54-.28-.78-.57-1.54c-.74-2.05-1.5-4.09-2.19-6.14-1.4-4.09-2.8-8.17-4.11-12.27-2.68-8.2-5.18-16.44-7.5-24.71l14.12-4.09Z"/>
  <path class="st13" d="M319.87,233.22c5.74,1.74,14.53,24.27,14.53,24.27l-22.26,15.92s-10.01-19.26-7.6-26.67c2.52-7.72,8.8-15.5,15.34-13.51Z"/>
  <path class="st8" d="M319.87,233.22c5.74,1.74,14.53,24.27,14.53,24.27l-22.26,15.92s-10.01-19.26-7.6-26.67c2.52-7.72,8.8-15.5,15.34-13.51Z"/>
  <path class="st17" d="M350.85,253.86l-3.05-13.46,12.69,6.7s.15,9.06-4.97,11.91l-4.67-5.15Z"/>
  <path class="st17" d="M353.11,229.73l8.1,5.74-.72,11.63-12.69-6.69,5.32-10.68Z"/>
  <path class="st0" d="M125.81,162.01h88.61c1.69-.02,3.37.32,4.92.98,1.56.67,2.96,1.65,4.12,2.88,1.16,1.23,2.05,2.69,2.61,4.29.56,1.6.79,3.29.67,4.98l-2.47,40.11c-.27,3.53-1.85,6.83-4.43,9.26-2.58,2.43-5.97,3.81-9.51,3.87h-10.26l4.19,13.77-20.04-13.77h-62.47c-1.69.02-3.37-.32-4.92-.98-1.56-.66-2.96-1.65-4.12-2.88-1.16-1.23-2.05-2.69-2.61-4.29-.56-1.6-.79-3.29-.67-4.98l2.45-40.11c.27-3.53,1.85-6.83,4.42-9.26,2.58-2.43,5.96-3.81,9.5-3.87Z"/>
  <path class="st2" d="M206.31,183.01h-74.94c-.32,0-.63-.07-.92-.2-.29-.13-.55-.32-.76-.55-.21-.24-.38-.51-.48-.82s-.14-.62-.11-.94c.05-.66.35-1.29.83-1.74.48-.46,1.12-.72,1.79-.73h74.95c.32,0,.63.07.92.19.29.13.55.31.77.54.22.23.38.51.49.8.1.3.15.62.12.93-.04.68-.33,1.31-.83,1.78-.49.47-1.14.73-1.82.73Z"/>
  <path class="st2" d="M161.91,197.66h-31.44c-.32,0-.63-.06-.93-.19-.29-.12-.56-.31-.77-.54-.22-.23-.38-.51-.49-.81-.11-.3-.15-.62-.13-.94.05-.67.35-1.29.83-1.75.49-.46,1.13-.72,1.79-.73h31.47c.32,0,.64.06.93.18.29.12.56.31.78.54.22.23.39.51.49.81.11.3.15.62.13.94-.05.67-.36,1.3-.85,1.76-.49.46-1.14.71-1.82.71Z"/>
  <path class="st2" d="M188.86,212.31h-59.28c-.32,0-.63-.06-.93-.19-.29-.12-.56-.31-.77-.54s-.39-.51-.49-.81c-.11-.3-.15-.62-.13-.94.05-.67.34-1.29.83-1.75.49-.46,1.13-.72,1.8-.72h59.28c.32,0,.64.06.93.18.29.12.56.31.78.54.22.23.39.51.49.81.11.3.15.62.12.94-.05.67-.35,1.29-.83,1.75-.49.46-1.13.72-1.79.73Z"/>
  <path class="st2" d="M185.01,197.66h-12.4c-.32,0-.63-.06-.93-.19-.29-.12-.56-.31-.77-.54-.22-.23-.39-.51-.49-.81-.11-.3-.15-.62-.13-.94.05-.67.35-1.29.84-1.74.49-.46,1.12-.72,1.79-.73h12.38c.32,0,.64.06.93.18.29.12.56.31.78.54.22.23.38.51.49.81.11.3.15.62.12.94-.05.66-.34,1.29-.83,1.74-.48.46-1.12.72-1.79.73Z"/>
  <path class="st13" d="M249.2,89.92h-48.31c-2.76.04-5.4,1.11-7.4,3-2.01,1.89-3.23,4.46-3.44,7.21l-1.88,31.22c-.09,1.31.08,2.63.53,3.87.44,1.24,1.13,2.38,2.03,3.33.9.96,1.99,1.72,3.2,2.24,1.21.52,2.51.78,3.83.76h7.91l-4.57,10.72,16.91-10.72h28.03c2.76-.04,5.4-1.11,7.4-3,2.01-1.89,3.23-4.46,3.44-7.21l1.91-31.22c.09-1.31-.08-2.63-.53-3.87-.44-1.24-1.13-2.38-2.04-3.33-.9-.96-1.99-1.72-3.2-2.24-1.21-.52-2.51-.78-3.83-.76Z"/>
  <path class="st16" d="M249.2,89.92h-48.31c-2.76.04-5.4,1.11-7.4,3-2.01,1.89-3.23,4.46-3.44,7.21l-1.88,31.22c-.09,1.31.08,2.63.53,3.87.44,1.24,1.13,2.38,2.03,3.33.9.96,1.99,1.72,3.2,2.24,1.21.52,2.51.78,3.83.76h7.91l-4.57,10.72,16.91-10.72h28.03c2.76-.04,5.4-1.11,7.4-3,2.01-1.89,3.23-4.46,3.44-7.21l1.91-31.22c.09-1.31-.08-2.63-.53-3.87-.44-1.24-1.13-2.38-2.04-3.33-.9-.96-1.99-1.72-3.2-2.24-1.21-.52-2.51-.78-3.83-.76Z"/>
  <path class="st2" d="M225.91,120.84c-.17.69-.56,1.3-1.11,1.74-.56.44-1.24.68-1.95.68h-2.85c0-.81.07-1.3.08-1.48.04-1.58.45-3.12,1.18-4.52,1.03-1.56,2.35-2.91,3.87-3.98,1.22-.88,2.37-1.85,3.43-2.91.57-.67.9-1.51.96-2.39.04-.58-.05-1.17-.27-1.71-.22-.54-.56-1.02-.99-1.41-1.06-.91-2.43-1.37-3.83-1.29-1.47-.04-2.9.44-4.05,1.36-.68.56-1.24,1.26-1.64,2.05-.3.57-.75,1.05-1.32,1.37-.56.32-1.21.46-1.85.41-.46-.06-.91-.23-1.29-.5-.38-.27-.68-.64-.88-1.06-.2-.42-.29-.89-.26-1.35.03-.47.17-.92.42-1.31.66-1.11,1.51-2.09,2.5-2.91,2.37-1.91,5.35-2.89,8.39-2.77,3.58,0,6.36.93,8.36,2.8.94.81,1.68,1.82,2.15,2.96.48,1.14.69,2.37.61,3.61-.1,1.4-.58,2.75-1.4,3.89-1.54,1.89-3.31,3.58-5.28,5.01-1.02.71-1.9,1.61-2.6,2.64-.18.35-.31.71-.38,1.09ZM219.67,128.7v-.35c.06-.79.41-1.53.99-2.07.58-.54,1.34-.85,2.13-.86h.39c.38,0,.76.07,1.1.22.35.15.66.37.92.64.26.28.46.6.59.96.13.36.18.74.15,1.12v.35c-.06.79-.41,1.53-.99,2.08-.58.54-1.34.85-2.13.87h-.35c-.38.01-.76-.06-1.12-.2-.35-.15-.68-.36-.94-.64-.26-.28-.47-.61-.6-.97-.13-.36-.18-.75-.15-1.13Z"/>
</svg>