<?xml version="1.0" encoding="UTF-8"?>
<svg id="Layer_1" xmlns="http://www.w3.org/2000/svg" version="1.1" viewBox="0 0 25 25">
  <!-- Generator: Adobe Illustrator 30.0.0, SVG Export Plug-In . SVG Version: 2.1.1 Build 123)  -->
  <defs>
    <style>
      .st0 {
        fill: none;
        stroke: #6b1aff;
        stroke-linejoin: round;
        stroke-width: 2px;
      }

      .st1 {
        fill: #6b1aff;
      }
    </style>
  </defs>
  <path class="st0" d="M17.5,3.65H7.5c-2.21,0-4,1.79-4,4v10c0,2.21,1.79,4,4,4h10c2.21,0,4-1.79,4-4V7.65c0-2.21-1.79-4-4-4Z"/>
  <path class="st0" d="M12.5,16.65c2.21,0,4-1.79,4-4s-1.79-4-4-4-4,1.79-4,4,1.79,4,4,4Z"/>
  <path class="st1" d="M18,8.15c.55,0,1-.45,1-1s-.45-1-1-1-1,.45-1,1,.45,1,1,1Z"/>
</svg>