<?xml version="1.0" encoding="UTF-8"?>
<svg id="Layer_1" xmlns="http://www.w3.org/2000/svg" version="1.1" viewBox="0 0 62 62">
  <!-- Generator: Adobe Illustrator 30.0.0, SVG Export Plug-In . SVG Version: 2.1.1 Build 123)  -->
  <defs>
    <style>
      .st0 {
        fill: #fff;
      }

      .st1 {
        fill: #6b1aff;
        stroke: #a7c5ff;
        stroke-opacity: .61;
        stroke-width: 8.67px;
      }
    </style>
  </defs>
  <circle class="st1" cx="31" cy="31" r="26"/>
  <path class="st0" d="M31,44.44c-7.41,0-13.44-6.03-13.44-13.44s6.02-13.44,13.44-13.44,13.44,6.02,13.44,13.44-6.03,13.44-13.44,13.44ZM31,19.44c-6.38,0-11.56,5.19-11.56,11.56s5.19,11.56,11.56,11.56,11.56-5.19,11.56-11.56-5.19-11.56-11.56-11.56Z"/>
  <path class="st0" d="M35.64,35.91c-.16,0-.33-.04-.48-.14l-3.88-2.31c-.96-.58-1.67-1.84-1.67-2.95v-5.12c0-.51.42-.94.94-.94s.94.42.94.94v5.12c0,.45.38,1.11.76,1.34l3.88,2.31c.45.26.59.84.33,1.29-.19.3-.5.46-.81.46Z"/>
</svg>