<?xml version="1.0" encoding="UTF-8"?>
<svg id="Layer_1" xmlns="http://www.w3.org/2000/svg" version="1.1" viewBox="0 0 62 62">
  <!-- Generator: Adobe Illustrator 30.0.0, SVG Export Plug-In . SVG Version: 2.1.1 Build 123)  -->
  <defs>
    <style>
      .st0 {
        fill: #fff;
      }

      .st1 {
        fill: #6b1aff;
        stroke: #a7c5ff;
        stroke-opacity: .61;
        stroke-width: 8.67px;
      }
    </style>
  </defs>
  <circle class="st1" cx="31" cy="31" r="26"/>
  <path class="st0" d="M34.79,44.59h-7.58c-6.86,0-9.8-2.93-9.8-9.8v-7.58c0-6.86,2.93-9.8,9.8-9.8h7.58c6.86,0,9.8,2.93,9.8,9.8v7.58c0,6.86-2.93,9.8-9.8,9.8ZM27.21,19.31c-5.83,0-7.9,2.07-7.9,7.9v7.58c0,5.83,2.07,7.9,7.9,7.9h7.58c5.83,0,7.9-2.07,7.9-7.9v-7.58c0-5.83-2.07-7.9-7.9-7.9h-7.58Z"/>
  <path class="st0" d="M26.66,36.08c-.24,0-.48-.09-.67-.28-.37-.37-.37-.97,0-1.34l8.28-8.28c.37-.37.97-.37,1.34,0,.37.37.37.97,0,1.34l-8.28,8.28c-.19.19-.43.28-.67.28Z"/>
  <path class="st0" d="M27.18,29.88c-1.38,0-2.5-1.12-2.5-2.5s1.12-2.5,2.5-2.5,2.5,1.12,2.5,2.5-1.12,2.5-2.5,2.5ZM27.18,26.78c-.33,0-.61.27-.61.61s.27.61.61.61.61-.27.61-.61-.28-.61-.61-.61Z"/>
  <path class="st0" d="M35.45,37.12c-1.38,0-2.5-1.12-2.5-2.5s1.12-2.5,2.5-2.5,2.5,1.12,2.5,2.5-1.12,2.5-2.5,2.5ZM35.45,34.02c-.33,0-.61.27-.61.61s.27.61.61.61.61-.27.61-.61-.27-.61-.61-.61Z"/>
</svg>