<?xml version="1.0" encoding="UTF-8"?>
<svg id="Layer_1" xmlns="http://www.w3.org/2000/svg" version="1.1" xmlns:xlink="http://www.w3.org/1999/xlink" viewBox="0 0 96 97">
  <!-- Generator: Adobe Illustrator 30.0.0, SVG Export Plug-In . SVG Version: 2.1.1 Build 123)  -->
  <defs>
    <style>
      .st0 {
        fill: #fff;
      }

      .st1 {
        mask: url(#mask);
      }

      .st2 {
        fill: url(#linear-gradient1);
      }

      .st3 {
        fill: #f2ebff;
        stroke: #fff;
        stroke-opacity: .61;
        stroke-width: 8px;
      }

      .st4 {
        fill: none;
        stroke: url(#linear-gradient);
        stroke-linecap: round;
        stroke-linejoin: round;
        stroke-width: .46px;
      }

      .st5 {
        fill: #6b1aff;
      }

      .st6 {
        fill: #3f00c9;
      }
    </style>
    <linearGradient id="linear-gradient" x1="40.12" y1="60.58" x2="62.52" y2="32.83" gradientTransform="translate(0 98) scale(1 -1)" gradientUnits="userSpaceOnUse">
      <stop offset="0" stop-color="#fff" stop-opacity=".25"/>
      <stop offset="1" stop-color="#fff" stop-opacity="0"/>
    </linearGradient>
    <mask id="mask" x="44.44" y="44" width="14" height="14.02" maskUnits="userSpaceOnUse">
      <g id="path-6-inside-1_1274_2578">
        <path class="st0" d="M58.22,45.22l-2.84,8.99c-.11.37-.4.67-.77.77l-8.96,2.81c-.6.19-1.18-.39-.98-.98l2.81-9.01c.11-.37.4-.65.77-.77l8.99-2.81c.61-.19,1.18.39.98,1"/>
      </g>
    </mask>
    <linearGradient id="linear-gradient1" x1="47.05" y1="52.43" x2="55.76" y2="41.65" gradientTransform="translate(0 98) scale(1 -1)" gradientUnits="userSpaceOnUse">
      <stop offset="0" stop-color="#fff" stop-opacity=".25"/>
      <stop offset="1" stop-color="#fff" stop-opacity="0"/>
    </linearGradient>
  </defs>
  <circle class="st3" cx="48" cy="48.47" r="44"/>
  <path class="st5" d="M62.12,44.56c0,9.7-7.86,17.56-17.56,17.56s-17.56-7.86-17.56-17.56,7.86-17.56,17.56-17.56,17.56,7.86,17.56,17.56Z"/>
  <path class="st6" d="M44.6,33.13c-6.24,0-11.3,5.06-11.3,11.3s5.06,11.3,11.3,11.3,11.3-5.06,11.3-11.3-5.05-11.3-11.3-11.3h0Z"/>
  <g>
    <path class="st5" d="M69,51.44c0,9.7-7.86,17.56-17.56,17.56s-17.56-7.86-17.56-17.56,7.86-17.56,17.56-17.56,17.56,7.86,17.56,17.56Z"/>
    <path class="st4" d="M51.44,69.23c9.83,0,17.79-7.96,17.79-17.79s-7.96-17.79-17.79-17.79-17.79,7.97-17.79,17.79,7.96,17.79,17.79,17.79Z"/>
  </g>
  <g>
    <path class="st6" d="M58.22,45.22l-2.84,8.99c-.11.37-.4.67-.77.77l-8.96,2.81c-.6.19-1.18-.39-.98-.98l2.81-9.01c.11-.37.4-.65.77-.77l8.99-2.81c.61-.19,1.18.39.98,1"/>
    <g class="st1">
      <path class="st2" d="M55.37,54.21l-.18-.06h0s.18.06.18.06ZM54.6,54.99l-.05-.18h0s.06.18.06.18ZM45.65,57.8l-.06-.18h0s.06.18.06.18ZM44.66,56.81l.18.06h0s-.18-.06-.18-.06ZM47.47,47.81l.18.05h0s-.18-.05-.18-.05ZM48.25,47.03l-.05-.18h0s.06.18.06.18ZM57.24,44.22l.05.18h0s-.06-.18-.06-.18ZM58.04,45.17l-2.84,8.99.35.11,2.84-8.99-.35-.11ZM55.2,54.16c-.09.31-.34.56-.65.65l.1.35c.43-.12.78-.47.9-.9l-.35-.1ZM54.55,54.81l-8.96,2.81.11.35,8.96-2.81-.11-.35ZM45.59,57.62c-.45.15-.9-.3-.75-.75l-.35-.11c-.24.74.47,1.46,1.22,1.22l-.11-.35ZM44.84,56.87l2.81-9.01-.35-.11-2.81,9.01.35.11ZM47.65,47.86c.09-.3.33-.54.65-.65l-.12-.35c-.42.14-.77.46-.89.9l.35.1ZM48.3,47.21l8.99-2.81-.11-.35-8.99,2.81.11.35ZM57.29,44.4c.47-.15.9.29.75.77l.35.11c.24-.75-.45-1.47-1.21-1.23l.11.35Z"/>
    </g>
  </g>
</svg>