<?xml version="1.0" encoding="UTF-8"?>
<svg id="Layer_1" xmlns="http://www.w3.org/2000/svg" version="1.1" viewBox="0 0 25 25">
  <!-- Generator: Adobe Illustrator 30.0.0, SVG Export Plug-In . SVG Version: 2.1.1 Build 123)  -->
  <defs>
    <style>
      .st0 {
        fill: #fff;
        fill-rule: evenodd;
      }

      .st1 {
        fill: #6b1aff;
      }
    </style>
  </defs>
  <path class="st1" d="M12.77.36h0c6.63,0,12,5.37,12,12h0c0,6.63-5.37,12-12,12h0C6.14,24.36.77,18.99.77,12.36h0C.77,5.74,6.14.36,12.77.36Z"/>
  <path class="st0" d="M17.86,7.75l-7.16,6.91-1.9-2.03c-.35-.33-.9-.35-1.3-.07-.39.29-.5.8-.26,1.21l2.25,3.66c.22.34.6.55,1.03.55s.8-.21,1.02-.55c.36-.47,7.23-8.66,7.23-8.66.9-.92-.19-1.73-.91-1.03h0Z"/>
</svg>