<?xml version="1.0" encoding="UTF-8"?>
<svg id="Layer_1" xmlns="http://www.w3.org/2000/svg" version="1.1" viewBox="0 0 25 25">
  <!-- Generator: Adobe Illustrator 30.0.0, SVG Export Plug-In . SVG Version: 2.1.1 Build 123)  -->
  <defs>
    <style>
      .st0 {
        fill: none;
        stroke: #6b1aff;
        stroke-miterlimit: 10;
        stroke-width: 2px;
      }
    </style>
  </defs>
  <path class="st0" d="M3,18.53c.96.53,7.95,4.56,12.91,1.46,4.96-3.1,4.69-8.45,4.69-10.89.45-.94,1.4-1.42,1.4-3.97-.93.86-1.86,1.16-2.78.88-.9-1.38-2.15-1.99-3.73-1.83-2.37.24-3.24,2.57-2.99,5.58-3.66,1.85-6.53-1.34-8.01-3.75-.49,1.9-.97,4.18,0,6.7.65,1.68,2.2,3.1,4.67,4.26-2.5,1.35-4.55,1.88-6.16,1.57Z"/>
</svg>