<?xml version="1.0" encoding="UTF-8"?>
<svg id="Layer_1" xmlns="http://www.w3.org/2000/svg" version="1.1" viewBox="0 0 24 24">
  <!-- Generator: Adobe Illustrator 30.0.0, SVG Export Plug-In . SVG Version: 2.1.1 Build 123)  -->
  <defs>
    <style>
      .st0 {
        fill: none;
        stroke: #6b1aff;
        stroke-linecap: round;
        stroke-linejoin: round;
        stroke-width: 2px;
      }
    </style>
  </defs>
  <path class="st0" d="M21.6,7.2c-.1-.4-.3-.8-.6-1.1-.3-.3-.7-.6-1.1-.7-1.6-.4-7.9-.4-7.9-.4,0,0-6.3,0-7.8.4-.4.1-.8.4-1.1.7-.4.3-.6.7-.7,1.1-.3,1.6-.4,3.2-.4,4.8s.1,3.2.4,4.8c.1.4.3.8.7,1.1.3.3.7.5,1.1.6,1.6.4,7.8.4,7.8.4,0,0,6.3,0,7.8-.4.4-.1.8-.4,1.1-.7s.5-.7.6-1.1c.3-1.6.4-3.2.4-4.8.1-1.5,0-3.1-.3-4.7Z"/>
  <path class="st0" d="M9.8,9.5c0-.5,0-.7.1-.8s.2-.2.4-.2.4.1.8.4l3.9,2.5c.3.2.5.3.6.5.1.1.1.3,0,.4-.1.1-.2.3-.6.5l-4,2.4c-.4.3-.6.4-.8.4-.1,0-.3-.1-.4-.2s-.1-.4-.1-.8v-5.1h.1Z"/>
</svg>